{"data":[{"streams":[{"index":0,"codec_name":"flac","codec_long_name":"FLAC (Free Lossless Audio Codec)","codec_type":"audio","codec_tag_string":"[0][0][0][0]","codec_tag":"0x0000","sample_fmt":"s16","sample_rate":"44100","channels":2,"channel_layout":"stereo","bits_per_sample":0,"r_frame_rate":"0/0","avg_frame_rate":"0/0","time_base":"1/44100","start_pts":0,"start_time":"0.000000","duration_ts":7703976,"duration":"174.693333","bits_per_raw_sample":"16","disposition":{"default":0,"dub":0,"original":0,"comment":0,"lyrics":0,"karaoke":0,"forced":0,"hearing_impaired":0,"visual_impaired":0,"clean_effects":0,"attached_pic":0,"timed_thumbnails":0}},{"index":1,"codec_name":"mjpeg","codec_long_name":"Motion JPEG","profile":"Baseline","codec_type":"video","codec_tag_string":"[0][0][0][0]","codec_tag":"0x0000","width":480,"height":480,"coded_width":480,"coded_height":480,"closed_captions":0,"has_b_frames":0,"sample_aspect_ratio":"1:1","display_aspect_ratio":"1:1","pix_fmt":"yuvj420p","level":-99,"color_range":"pc","color_space":"bt470bg","chroma_location":"center","refs":1,"r_frame_rate":"90000/1","avg_frame_rate":"0/0","time_base":"1/90000","start_pts":0,"start_time":"0.000000","duration_ts":15722400,"duration":"174.693333","bits_per_raw_sample":"8","disposition":{"default":0,"dub":0,"original":0,"comment":0,"lyrics":0,"karaoke":0,"forced":0,"hearing_impaired":0,"visual_impaired":0,"clean_effects":0,"attached_pic":1,"timed_thumbnails":0},"tags":{"comment":"Cover (front)"}}],"format":{"filename":"/home/music/BØRNS (BORNS) - Dopamine (Target Deluxe Edition) (2015) [CD-FLAC] [sn3h1t87] [GloDLS]/01 - 10,000 Emerald Pools.flac","nb_streams":2,"nb_programs":0,"format_name":"flac","format_long_name":"raw FLAC","start_time":"0.000000","duration":"174.693333","size":"21307286","bit_rate":"975757","probe_score":100,"tags":{"album_artist":"BØRNS","ARTIST":"BØRNS","TITLE":"10,000 Emerald Pools","ALBUM":"Dopamine (Target Exclusive Deluxe Edition)","Date":"2015","GENRE":"Alternative","track":"01","TRACKTOTAL":"13","disc":"1","DISCTOTAL":"1"}},"date_added":1674233951232},{"streams":[{"index":0,"codec_name":"flac","codec_long_name":"FLAC (Free Lossless Audio Codec)","codec_type":"audio","codec_tag_string":"[0][0][0][0]","codec_tag":"0x0000","sample_fmt":"s16","sample_rate":"44100","channels":2,"channel_layout":"stereo","bits_per_sample":0,"r_frame_rate":"0/0","avg_frame_rate":"0/0","time_base":"1/44100","start_pts":0,"start_time":"0.000000","duration_ts":8360184,"duration":"189.573333","bits_per_raw_sample":"16","disposition":{"default":0,"dub":0,"original":0,"comment":0,"lyrics":0,"karaoke":0,"forced":0,"hearing_impaired":0,"visual_impaired":0,"clean_effects":0,"attached_pic":0,"timed_thumbnails":0}},{"index":1,"codec_name":"mjpeg","codec_long_name":"Motion JPEG","profile":"Baseline","codec_type":"video","codec_tag_string":"[0][0][0][0]","codec_tag":"0x0000","width":480,"height":480,"coded_width":480,"coded_height":480,"closed_captions":0,"has_b_frames":0,"sample_aspect_ratio":"1:1","display_aspect_ratio":"1:1","pix_fmt":"yuvj420p","level":-99,"color_range":"pc","color_space":"bt470bg","chroma_location":"center","refs":1,"r_frame_rate":"90000/1","avg_frame_rate":"0/0","time_base":"1/90000","start_pts":0,"start_time":"0.000000","duration_ts":17061600,"duration":"189.573333","bits_per_raw_sample":"8","disposition":{"default":0,"dub":0,"original":0,"comment":0,"lyrics":0,"karaoke":0,"forced":0,"hearing_impaired":0,"visual_impaired":0,"clean_effects":0,"attached_pic":1,"timed_thumbnails":0},"tags":{"comment":"Cover (front)"}}],"format":{"filename":"/home/music/BØRNS (BORNS) - Dopamine (Target Deluxe Edition) (2015) [CD-FLAC] [sn3h1t87] [GloDLS]/02 - Dug My Heart.flac","nb_streams":2,"nb_programs":0,"format_name":"flac","format_long_name":"raw FLAC","start_time":"0.000000","duration":"189.573333","size":"21913003","bit_rate":"924729","probe_score":100,"tags":{"album_artist":"BØRNS","ARTIST":"BØRNS","TITLE":"Dug My Heart","ALBUM":"Dopamine (Target Exclusive Deluxe Edition)","Date":"2015","GENRE":"Alternative","track":"02","TRACKTOTAL":"13","disc":"1","DISCTOTAL":"1"}},"date_added":1674233951232},{"streams":[{"index":0,"codec_name":"flac","codec_long_name":"FLAC (Free Lossless Audio Codec)","codec_type":"audio","codec_tag_string":"[0][0][0][0]","codec_tag":"0x0000","sample_fmt":"s16","sample_rate":"44100","channels":2,"channel_layout":"stereo","bits_per_sample":0,"r_frame_rate":"0/0","avg_frame_rate":"0/0","time_base":"1/44100","start_pts":0,"start_time":"0.000000","duration_ts":9618504,"duration":"218.106667","bits_per_raw_sample":"16","disposition":{"default":0,"dub":0,"original":0,"comment":0,"lyrics":0,"karaoke":0,"forced":0,"hearing_impaired":0,"visual_impaired":0,"clean_effects":0,"attached_pic":0,"timed_thumbnails":0}},{"index":1,"codec_name":"mjpeg","codec_long_name":"Motion JPEG","profile":"Baseline","codec_type":"video","codec_tag_string":"[0][0][0][0]","codec_tag":"0x0000","width":480,"height":480,"coded_width":480,"coded_height":480,"closed_captions":0,"has_b_frames":0,"sample_aspect_ratio":"1:1","display_aspect_ratio":"1:1","pix_fmt":"yuvj420p","level":-99,"color_range":"pc","color_space":"bt470bg","chroma_location":"center","refs":1,"r_frame_rate":"90000/1","avg_frame_rate":"0/0","time_base":"1/90000","start_pts":0,"start_time":"0.000000","duration_ts":19629600,"duration":"218.106667","bits_per_raw_sample":"8","disposition":{"default":0,"dub":0,"original":0,"comment":0,"lyrics":0,"karaoke":0,"forced":0,"hearing_impaired":0,"visual_impaired":0,"clean_effects":0,"attached_pic":1,"timed_thumbnails":0},"tags":{"comment":"Cover (front)"}}],"format":{"filename":"/home/music/BØRNS (BORNS) - Dopamine (Target Deluxe Edition) (2015) [CD-FLAC] [sn3h1t87] [GloDLS]/03 - Electric Love.flac","nb_streams":2,"nb_programs":0,"format_name":"flac","format_long_name":"raw FLAC","start_time":"0.000000","duration":"218.106667","size":"24739377","bit_rate":"907423","probe_score":100,"tags":{"album_artist":"BØRNS","ARTIST":"BØRNS","TITLE":"Electric Love","ALBUM":"Dopamine (Target Exclusive Deluxe Edition)","Date":"2015","GENRE":"Alternative","track":"03","TRACKTOTAL":"13","disc":"1","DISCTOTAL":"1"}},"date_added":1674233951232},{"streams":[{"index":0,"codec_name":"flac","codec_long_name":"FLAC (Free Lossless Audio Codec)","codec_type":"audio","codec_tag_string":"[0][0][0][0]","codec_tag":"0x0000","sample_fmt":"s16","sample_rate":"44100","channels":2,"channel_layout":"stereo","bits_per_sample":0,"r_frame_rate":"0/0","avg_frame_rate":"0/0","time_base":"1/44100","start_pts":0,"start_time":"0.000000","duration_ts":11509512,"duration":"260.986667","bits_per_raw_sample":"16","disposition":{"default":0,"dub":0,"original":0,"comment":0,"lyrics":0,"karaoke":0,"forced":0,"hearing_impaired":0,"visual_impaired":0,"clean_effects":0,"attached_pic":0,"timed_thumbnails":0}},{"index":1,"codec_name":"mjpeg","codec_long_name":"Motion JPEG","profile":"Baseline","codec_type":"video","codec_tag_string":"[0][0][0][0]","codec_tag":"0x0000","width":480,"height":480,"coded_width":480,"coded_height":480,"closed_captions":0,"has_b_frames":0,"sample_aspect_ratio":"1:1","display_aspect_ratio":"1:1","pix_fmt":"yuvj420p","level":-99,"color_range":"pc","color_space":"bt470bg","chroma_location":"center","refs":1,"r_frame_rate":"90000/1","avg_frame_rate":"0/0","time_base":"1/90000","start_pts":0,"start_time":"0.000000","duration_ts":23488800,"duration":"260.986667","bits_per_raw_sample":"8","disposition":{"default":0,"dub":0,"original":0,"comment":0,"lyrics":0,"karaoke":0,"forced":0,"hearing_impaired":0,"visual_impaired":0,"clean_effects":0,"attached_pic":1,"timed_thumbnails":0},"tags":{"comment":"Cover (front)"}}],"format":{"filename":"/home/music/BØRNS (BORNS) - Dopamine (Target Deluxe Edition) (2015) [CD-FLAC] [sn3h1t87] [GloDLS]/04 - American Money.flac","nb_streams":2,"nb_programs":0,"format_name":"flac","format_long_name":"raw FLAC","start_time":"0.000000","duration":"260.986667","size":"28248055","bit_rate":"865884","probe_score":100,"tags":{"album_artist":"BØRNS","ARTIST":"BØRNS","TITLE":"American Money","ALBUM":"Dopamine (Target Exclusive Deluxe Edition)","Date":"2015","GENRE":"Alternative","track":"04","TRACKTOTAL":"13","disc":"1","DISCTOTAL":"1"}},"date_added":1674233951232},{"streams":[{"index":0,"codec_name":"flac","codec_long_name":"FLAC (Free Lossless Audio Codec)","codec_type":"audio","codec_tag_string":"[0][0][0][0]","codec_tag":"0x0000","sample_fmt":"s16","sample_rate":"44100","channels":2,"channel_layout":"stereo","bits_per_sample":0,"r_frame_rate":"0/0","avg_frame_rate":"0/0","time_base":"1/44100","start_pts":0,"start_time":"0.000000","duration_ts":9913092,"duration":"224.786667","bits_per_raw_sample":"16","disposition":{"default":0,"dub":0,"original":0,"comment":0,"lyrics":0,"karaoke":0,"forced":0,"hearing_impaired":0,"visual_impaired":0,"clean_effects":0,"attached_pic":0,"timed_thumbnails":0}},{"index":1,"codec_name":"mjpeg","codec_long_name":"Motion JPEG","profile":"Baseline","codec_type":"video","codec_tag_string":"[0][0][0][0]","codec_tag":"0x0000","width":480,"height":480,"coded_width":480,"coded_height":480,"closed_captions":0,"has_b_frames":0,"sample_aspect_ratio":"1:1","display_aspect_ratio":"1:1","pix_fmt":"yuvj420p","level":-99,"color_range":"pc","color_space":"bt470bg","chroma_location":"center","refs":1,"r_frame_rate":"90000/1","avg_frame_rate":"0/0","time_base":"1/90000","start_pts":0,"start_time":"0.000000","duration_ts":20230800,"duration":"224.786667","bits_per_raw_sample":"8","disposition":{"default":0,"dub":0,"original":0,"comment":0,"lyrics":0,"karaoke":0,"forced":0,"hearing_impaired":0,"visual_impaired":0,"clean_effects":0,"attached_pic":1,"timed_thumbnails":0},"tags":{"comment":"Cover (front)"}}],"format":{"filename":"/home/music/BØRNS (BORNS) - Dopamine (Target Deluxe Edition) (2015) [CD-FLAC] [sn3h1t87] [GloDLS]/05 - The Emotion.flac","nb_streams":2,"nb_programs":0,"format_name":"flac","format_long_name":"raw FLAC","start_time":"0.000000","duration":"224.786667","size":"24379307","bit_rate":"867642","probe_score":100,"tags":{"album_artist":"BØRNS","ARTIST":"BØRNS","TITLE":"The Emotion","ALBUM":"Dopamine (Target Exclusive Deluxe Edition)","Date":"2015","GENRE":"Alternative","track":"05","TRACKTOTAL":"13","disc":"1","DISCTOTAL":"1"}},"date_added":1674233951232},{"streams":[{"index":0,"codec_name":"flac","codec_long_name":"FLAC (Free Lossless Audio Codec)","codec_type":"audio","codec_tag_string":"[0][0][0][0]","codec_tag":"0x0000","sample_fmt":"s16","sample_rate":"44100","channels":2,"channel_layout":"stereo","bits_per_sample":0,"r_frame_rate":"0/0","avg_frame_rate":"0/0","time_base":"1/44100","start_pts":0,"start_time":"0.000000","duration_ts":11318412,"duration":"256.653333","bits_per_raw_sample":"16","disposition":{"default":0,"dub":0,"original":0,"comment":0,"lyrics":0,"karaoke":0,"forced":0,"hearing_impaired":0,"visual_impaired":0,"clean_effects":0,"attached_pic":0,"timed_thumbnails":0}},{"index":1,"codec_name":"mjpeg","codec_long_name":"Motion JPEG","profile":"Baseline","codec_type":"video","codec_tag_string":"[0][0][0][0]","codec_tag":"0x0000","width":480,"height":480,"coded_width":480,"coded_height":480,"closed_captions":0,"has_b_frames":0,"sample_aspect_ratio":"1:1","display_aspect_ratio":"1:1","pix_fmt":"yuvj420p","level":-99,"color_range":"pc","color_space":"bt470bg","chroma_location":"center","refs":1,"r_frame_rate":"90000/1","avg_frame_rate":"0/0","time_base":"1/90000","start_pts":0,"start_time":"0.000000","duration_ts":23098800,"duration":"256.653333","bits_per_raw_sample":"8","disposition":{"default":0,"dub":0,"original":0,"comment":0,"lyrics":0,"karaoke":0,"forced":0,"hearing_impaired":0,"visual_impaired":0,"clean_effects":0,"attached_pic":1,"timed_thumbnails":0},"tags":{"comment":"Cover (front)"}}],"format":{"filename":"/home/music/BØRNS (BORNS) - Dopamine (Target Deluxe Edition) (2015) [CD-FLAC] [sn3h1t87] [GloDLS]/06 - Holy Ghost.flac","nb_streams":2,"nb_programs":0,"format_name":"flac","format_long_name":"raw FLAC","start_time":"0.000000","duration":"256.653333","size":"31933062","bit_rate":"995367","probe_score":100,"tags":{"album_artist":"BØRNS","ARTIST":"BØRNS","TITLE":"Holy Ghost","ALBUM":"Dopamine (Target Exclusive Deluxe Edition)","Date":"2015","GENRE":"Alternative","track":"06","TRACKTOTAL":"13","disc":"1","DISCTOTAL":"1"}},"date_added":1674233951232},{"streams":[{"index":0,"codec_name":"flac","codec_long_name":"FLAC (Free Lossless Audio Codec)","codec_type":"audio","codec_tag_string":"[0][0][0][0]","codec_tag":"0x0000","sample_fmt":"s16","sample_rate":"44100","channels":2,"channel_layout":"stereo","bits_per_sample":0,"r_frame_rate":"0/0","avg_frame_rate":"0/0","time_base":"1/44100","start_pts":0,"start_time":"0.000000","duration_ts":12097512,"duration":"274.320000","bits_per_raw_sample":"16","disposition":{"default":0,"dub":0,"original":0,"comment":0,"lyrics":0,"karaoke":0,"forced":0,"hearing_impaired":0,"visual_impaired":0,"clean_effects":0,"attached_pic":0,"timed_thumbnails":0}},{"index":1,"codec_name":"mjpeg","codec_long_name":"Motion JPEG","profile":"Baseline","codec_type":"video","codec_tag_string":"[0][0][0][0]","codec_tag":"0x0000","width":480,"height":480,"coded_width":480,"coded_height":480,"closed_captions":0,"has_b_frames":0,"sample_aspect_ratio":"1:1","display_aspect_ratio":"1:1","pix_fmt":"yuvj420p","level":-99,"color_range":"pc","color_space":"bt470bg","chroma_location":"center","refs":1,"r_frame_rate":"90000/1","avg_frame_rate":"0/0","time_base":"1/90000","start_pts":0,"start_time":"0.000000","duration_ts":24688800,"duration":"274.320000","bits_per_raw_sample":"8","disposition":{"default":0,"dub":0,"original":0,"comment":0,"lyrics":0,"karaoke":0,"forced":0,"hearing_impaired":0,"visual_impaired":0,"clean_effects":0,"attached_pic":1,"timed_thumbnails":0},"tags":{"comment":"Cover (front)"}}],"format":{"filename":"/home/music/BØRNS (BORNS) - Dopamine (Target Deluxe Edition) (2015) [CD-FLAC] [sn3h1t87] [GloDLS]/07 - Past Lives.flac","nb_streams":2,"nb_programs":0,"format_name":"flac","format_long_name":"raw FLAC","start_time":"0.000000","duration":"274.320000","size":"31205786","bit_rate":"910055","probe_score":100,"tags":{"album_artist":"BØRNS","ARTIST":"BØRNS","TITLE":"Past Lives","ALBUM":"Dopamine (Target Exclusive Deluxe Edition)","Date":"2015","GENRE":"Alternative","track":"07","TRACKTOTAL":"13","disc":"1","DISCTOTAL":"1"}},"date_added":1674233951233},{"streams":[{"index":0,"codec_name":"flac","codec_long_name":"FLAC (Free Lossless Audio Codec)","codec_type":"audio","codec_tag_string":"[0][0][0][0]","codec_tag":"0x0000","sample_fmt":"s16","sample_rate":"44100","channels":2,"channel_layout":"stereo","bits_per_sample":0,"r_frame_rate":"0/0","avg_frame_rate":"0/0","time_base":"1/44100","start_pts":0,"start_time":"0.000000","duration_ts":8390172,"duration":"190.253333","bits_per_raw_sample":"16","disposition":{"default":0,"dub":0,"original":0,"comment":0,"lyrics":0,"karaoke":0,"forced":0,"hearing_impaired":0,"visual_impaired":0,"clean_effects":0,"attached_pic":0,"timed_thumbnails":0}},{"index":1,"codec_name":"mjpeg","codec_long_name":"Motion JPEG","profile":"Baseline","codec_type":"video","codec_tag_string":"[0][0][0][0]","codec_tag":"0x0000","width":480,"height":480,"coded_width":480,"coded_height":480,"closed_captions":0,"has_b_frames":0,"sample_aspect_ratio":"1:1","display_aspect_ratio":"1:1","pix_fmt":"yuvj420p","level":-99,"color_range":"pc","color_space":"bt470bg","chroma_location":"center","refs":1,"r_frame_rate":"90000/1","avg_frame_rate":"0/0","time_base":"1/90000","start_pts":0,"start_time":"0.000000","duration_ts":17122800,"duration":"190.253333","bits_per_raw_sample":"8","disposition":{"default":0,"dub":0,"original":0,"comment":0,"lyrics":0,"karaoke":0,"forced":0,"hearing_impaired":0,"visual_impaired":0,"clean_effects":0,"attached_pic":1,"timed_thumbnails":0},"tags":{"comment":"Cover (front)"}}],"format":{"filename":"/home/music/BØRNS (BORNS) - Dopamine (Target Deluxe Edition) (2015) [CD-FLAC] [sn3h1t87] [GloDLS]/08 - Clouds.flac","nb_streams":2,"nb_programs":0,"format_name":"flac","format_long_name":"raw FLAC","start_time":"0.000000","duration":"190.253333","size":"18657096","bit_rate":"784515","probe_score":100,"tags":{"album_artist":"BØRNS","ARTIST":"BØRNS","TITLE":"Clouds","ALBUM":"Dopamine (Target Exclusive Deluxe Edition)","Date":"2015","GENRE":"Alternative","track":"08","TRACKTOTAL":"13","disc":"1","DISCTOTAL":"1"}},"date_added":1674233951233},{"streams":[{"index":0,"codec_name":"flac","codec_long_name":"FLAC (Free Lossless Audio Codec)","codec_type":"audio","codec_tag_string":"[0][0][0][0]","codec_tag":"0x0000","sample_fmt":"s16","sample_rate":"44100","channels":2,"channel_layout":"stereo","bits_per_sample":0,"r_frame_rate":"0/0","avg_frame_rate":"0/0","time_base":"1/44100","start_pts":0,"start_time":"0.000000","duration_ts":9894864,"duration":"224.373333","bits_per_raw_sample":"16","disposition":{"default":0,"dub":0,"original":0,"comment":0,"lyrics":0,"karaoke":0,"forced":0,"hearing_impaired":0,"visual_impaired":0,"clean_effects":0,"attached_pic":0,"timed_thumbnails":0}},{"index":1,"codec_name":"mjpeg","codec_long_name":"Motion JPEG","profile":"Baseline","codec_type":"video","codec_tag_string":"[0][0][0][0]","codec_tag":"0x0000","width":480,"height":480,"coded_width":480,"coded_height":480,"closed_captions":0,"has_b_frames":0,"sample_aspect_ratio":"1:1","display_aspect_ratio":"1:1","pix_fmt":"yuvj420p","level":-99,"color_range":"pc","color_space":"bt470bg","chroma_location":"center","refs":1,"r_frame_rate":"90000/1","avg_frame_rate":"0/0","time_base":"1/90000","start_pts":0,"start_time":"0.000000","duration_ts":20193600,"duration":"224.373333","bits_per_raw_sample":"8","disposition":{"default":0,"dub":0,"original":0,"comment":0,"lyrics":0,"karaoke":0,"forced":0,"hearing_impaired":0,"visual_impaired":0,"clean_effects":0,"attached_pic":1,"timed_thumbnails":0},"tags":{"comment":"Cover (front)"}}],"format":{"filename":"/home/music/BØRNS (BORNS) - Dopamine (Target Deluxe Edition) (2015) [CD-FLAC] [sn3h1t87] [GloDLS]/09 - Dopamine.flac","nb_streams":2,"nb_programs":0,"format_name":"flac","format_long_name":"raw FLAC","start_time":"0.000000","duration":"224.373333","size":"28336725","bit_rate":"1010341","probe_score":100,"tags":{"album_artist":"BØRNS","ARTIST":"BØRNS","TITLE":"Dopamine","ALBUM":"Dopamine (Target Exclusive Deluxe Edition)","Date":"2015","GENRE":"Alternative","track":"09","TRACKTOTAL":"13","disc":"1","DISCTOTAL":"1"}},"date_added":1674233951233},{"streams":[{"index":0,"codec_name":"flac","codec_long_name":"FLAC (Free Lossless Audio Codec)","codec_type":"audio","codec_tag_string":"[0][0][0][0]","codec_tag":"0x0000","sample_fmt":"s16","sample_rate":"44100","channels":2,"channel_layout":"stereo","bits_per_sample":0,"r_frame_rate":"0/0","avg_frame_rate":"0/0","time_base":"1/44100","start_pts":0,"start_time":"0.000000","duration_ts":8750028,"duration":"198.413333","bits_per_raw_sample":"16","disposition":{"default":0,"dub":0,"original":0,"comment":0,"lyrics":0,"karaoke":0,"forced":0,"hearing_impaired":0,"visual_impaired":0,"clean_effects":0,"attached_pic":0,"timed_thumbnails":0}},{"index":1,"codec_name":"mjpeg","codec_long_name":"Motion JPEG","profile":"Baseline","codec_type":"video","codec_tag_string":"[0][0][0][0]","codec_tag":"0x0000","width":480,"height":480,"coded_width":480,"coded_height":480,"closed_captions":0,"has_b_frames":0,"sample_aspect_ratio":"1:1","display_aspect_ratio":"1:1","pix_fmt":"yuvj420p","level":-99,"color_range":"pc","color_space":"bt470bg","chroma_location":"center","refs":1,"r_frame_rate":"90000/1","avg_frame_rate":"0/0","time_base":"1/90000","start_pts":0,"start_time":"0.000000","duration_ts":17857200,"duration":"198.413333","bits_per_raw_sample":"8","disposition":{"default":0,"dub":0,"original":0,"comment":0,"lyrics":0,"karaoke":0,"forced":0,"hearing_impaired":0,"visual_impaired":0,"clean_effects":0,"attached_pic":1,"timed_thumbnails":0},"tags":{"comment":"Cover (front)"}}],"format":{"filename":"/home/music/BØRNS (BORNS) - Dopamine (Target Deluxe Edition) (2015) [CD-FLAC] [sn3h1t87] [GloDLS]/10 - Overnight Sensation.flac","nb_streams":2,"nb_programs":0,"format_name":"flac","format_long_name":"raw FLAC","start_time":"0.000000","duration":"198.413333","size":"24400033","bit_rate":"983806","probe_score":100,"tags":{"album_artist":"BØRNS","ARTIST":"BØRNS","TITLE":"Overnight Sensation","ALBUM":"Dopamine (Target Exclusive Deluxe Edition)","Date":"2015","GENRE":"Alternative","track":"10","TRACKTOTAL":"13","disc":"1","DISCTOTAL":"1"}},"date_added":1674233951233},{"streams":[{"index":0,"codec_name":"flac","codec_long_name":"FLAC (Free Lossless Audio Codec)","codec_type":"audio","codec_tag_string":"[0][0][0][0]","codec_tag":"0x0000","sample_fmt":"s16","sample_rate":"44100","channels":2,"channel_layout":"stereo","bits_per_sample":0,"r_frame_rate":"0/0","avg_frame_rate":"0/0","time_base":"1/44100","start_pts":0,"start_time":"0.000000","duration_ts":9627912,"duration":"218.320000","bits_per_raw_sample":"16","disposition":{"default":0,"dub":0,"original":0,"comment":0,"lyrics":0,"karaoke":0,"forced":0,"hearing_impaired":0,"visual_impaired":0,"clean_effects":0,"attached_pic":0,"timed_thumbnails":0}},{"index":1,"codec_name":"mjpeg","codec_long_name":"Motion JPEG","profile":"Baseline","codec_type":"video","codec_tag_string":"[0][0][0][0]","codec_tag":"0x0000","width":480,"height":480,"coded_width":480,"coded_height":480,"closed_captions":0,"has_b_frames":0,"sample_aspect_ratio":"1:1","display_aspect_ratio":"1:1","pix_fmt":"yuvj420p","level":-99,"color_range":"pc","color_space":"bt470bg","chroma_location":"center","refs":1,"r_frame_rate":"90000/1","avg_frame_rate":"0/0","time_base":"1/90000","start_pts":0,"start_time":"0.000000","duration_ts":19648800,"duration":"218.320000","bits_per_raw_sample":"8","disposition":{"default":0,"dub":0,"original":0,"comment":0,"lyrics":0,"karaoke":0,"forced":0,"hearing_impaired":0,"visual_impaired":0,"clean_effects":0,"attached_pic":1,"timed_thumbnails":0},"tags":{"comment":"Cover (front)"}}],"format":{"filename":"/home/music/BØRNS (BORNS) - Dopamine (Target Deluxe Edition) (2015) [CD-FLAC] [sn3h1t87] [GloDLS]/11 - Fool.flac","nb_streams":2,"nb_programs":0,"format_name":"flac","format_long_name":"raw FLAC","start_time":"0.000000","duration":"218.320000","size":"26664867","bit_rate":"977092","probe_score":100,"tags":{"album_artist":"BØRNS","ARTIST":"BØRNS","TITLE":"Fool","ALBUM":"Dopamine (Target Exclusive Deluxe Edition)","Date":"2015","GENRE":"Alternative","track":"11","TRACKTOTAL":"13","disc":"1","DISCTOTAL":"1"}},"date_added":1674233951233},{"streams":[{"index":0,"codec_name":"flac","codec_long_name":"FLAC (Free Lossless Audio Codec)","codec_type":"audio","codec_tag_string":"[0][0][0][0]","codec_tag":"0x0000","sample_fmt":"s16","sample_rate":"44100","channels":2,"channel_layout":"stereo","bits_per_sample":0,"r_frame_rate":"0/0","avg_frame_rate":"0/0","time_base":"1/44100","start_pts":0,"start_time":"0.000000","duration_ts":9984828,"duration":"226.413333","bits_per_raw_sample":"16","disposition":{"default":0,"dub":0,"original":0,"comment":0,"lyrics":0,"karaoke":0,"forced":0,"hearing_impaired":0,"visual_impaired":0,"clean_effects":0,"attached_pic":0,"timed_thumbnails":0}},{"index":1,"codec_name":"mjpeg","codec_long_name":"Motion JPEG","profile":"Baseline","codec_type":"video","codec_tag_string":"[0][0][0][0]","codec_tag":"0x0000","width":480,"height":480,"coded_width":480,"coded_height":480,"closed_captions":0,"has_b_frames":0,"sample_aspect_ratio":"1:1","display_aspect_ratio":"1:1","pix_fmt":"yuvj420p","level":-99,"color_range":"pc","color_space":"bt470bg","chroma_location":"center","refs":1,"r_frame_rate":"90000/1","avg_frame_rate":"0/0","time_base":"1/90000","start_pts":0,"start_time":"0.000000","duration_ts":20377200,"duration":"226.413333","bits_per_raw_sample":"8","disposition":{"default":0,"dub":0,"original":0,"comment":0,"lyrics":0,"karaoke":0,"forced":0,"hearing_impaired":0,"visual_impaired":0,"clean_effects":0,"attached_pic":1,"timed_thumbnails":0},"tags":{"comment":"Cover (front)"}}],"format":{"filename":"/home/music/BØRNS (BORNS) - Dopamine (Target Deluxe Edition) (2015) [CD-FLAC] [sn3h1t87] [GloDLS]/12 - Rolling in the Roses.flac","nb_streams":2,"nb_programs":0,"format_name":"flac","format_long_name":"raw FLAC","start_time":"0.000000","duration":"226.413333","size":"27468524","bit_rate":"970562","probe_score":100,"tags":{"album_artist":"BØRNS","ARTIST":"BØRNS","TITLE":"Rolling in the Roses","ALBUM":"Dopamine (Target Exclusive Deluxe Edition)","Date":"2015","GENRE":"Alternative","track":"12","TRACKTOTAL":"13","disc":"1","DISCTOTAL":"1"}},"date_added":1674233951233},{"streams":[{"index":0,"codec_name":"flac","codec_long_name":"FLAC (Free Lossless Audio Codec)","codec_type":"audio","codec_tag_string":"[0][0][0][0]","codec_tag":"0x0000","sample_fmt":"s16","sample_rate":"44100","channels":2,"channel_layout":"stereo","bits_per_sample":0,"r_frame_rate":"0/0","avg_frame_rate":"0/0","time_base":"1/44100","start_pts":0,"start_time":"0.000000","duration_ts":5888820,"duration":"133.533333","bits_per_raw_sample":"16","disposition":{"default":0,"dub":0,"original":0,"comment":0,"lyrics":0,"karaoke":0,"forced":0,"hearing_impaired":0,"visual_impaired":0,"clean_effects":0,"attached_pic":0,"timed_thumbnails":0}},{"index":1,"codec_name":"mjpeg","codec_long_name":"Motion JPEG","profile":"Baseline","codec_type":"video","codec_tag_string":"[0][0][0][0]","codec_tag":"0x0000","width":480,"height":480,"coded_width":480,"coded_height":480,"closed_captions":0,"has_b_frames":0,"sample_aspect_ratio":"1:1","display_aspect_ratio":"1:1","pix_fmt":"yuvj420p","level":-99,"color_range":"pc","color_space":"bt470bg","chroma_location":"center","refs":1,"r_frame_rate":"90000/1","avg_frame_rate":"0/0","time_base":"1/90000","start_pts":0,"start_time":"0.000000","duration_ts":12018000,"duration":"133.533333","bits_per_raw_sample":"8","disposition":{"default":0,"dub":0,"original":0,"comment":0,"lyrics":0,"karaoke":0,"forced":0,"hearing_impaired":0,"visual_impaired":0,"clean_effects":0,"attached_pic":1,"timed_thumbnails":0},"tags":{"comment":"Cover (front)"}}],"format":{"filename":"/home/music/BØRNS (BORNS) - Dopamine (Target Deluxe Edition) (2015) [CD-FLAC] [sn3h1t87] [GloDLS]/13 - A Song for the Stoned Girl in My Bed.flac","nb_streams":2,"nb_programs":0,"format_name":"flac","format_long_name":"raw FLAC","start_time":"0.000000","duration":"133.533333","size":"12025564","bit_rate":"720453","probe_score":100,"tags":{"album_artist":"BØRNS","ARTIST":"BØRNS","TITLE":"A Song for the Stoned Girl in My Bed","ALBUM":"Dopamine (Target Exclusive Deluxe Edition)","Date":"2015","GENRE":"Alternative","track":"13","TRACKTOTAL":"13","disc":"1","DISCTOTAL":"1"}},"date_added":1674233951233},{"streams":[{"index":0,"codec_name":"mjpeg","codec_long_name":"Motion JPEG","profile":"Baseline","codec_type":"video","codec_tag_string":"[0][0][0][0]","codec_tag":"0x0000","width":1500,"height":1521,"coded_width":1500,"coded_height":1521,"closed_captions":0,"has_b_frames":0,"sample_aspect_ratio":"1:1","display_aspect_ratio":"500:507","pix_fmt":"yuvj420p","level":-99,"color_range":"pc","color_space":"bt470bg","chroma_location":"center","refs":1,"r_frame_rate":"25/1","avg_frame_rate":"25/1","time_base":"1/25","start_pts":0,"start_time":"0.000000","duration_ts":1,"duration":"0.040000","bits_per_raw_sample":"8","disposition":{"default":0,"dub":0,"original":0,"comment":0,"lyrics":0,"karaoke":0,"forced":0,"hearing_impaired":0,"visual_impaired":0,"clean_effects":0,"attached_pic":0,"timed_thumbnails":0}}],"format":{"filename":"/home/music/BØRNS (BORNS) - Dopamine (Target Deluxe Edition) (2015) [CD-FLAC] [sn3h1t87] [GloDLS]/Cover.jpeg","nb_streams":1,"nb_programs":0,"format_name":"image2","format_long_name":"image2 sequence","start_time":"0.000000","duration":"0.040000","size":"692236","bit_rate":"138447200","probe_score":50},"date_added":1674233951233},{"streams":[{"index":0,"codec_name":"png","codec_long_name":"PNG (Portable Network Graphics) image","codec_type":"video","codec_tag_string":"[0][0][0][0]","codec_tag":"0x0000","width":366,"height":38,"coded_width":366,"coded_height":38,"closed_captions":0,"has_b_frames":0,"pix_fmt":"rgba","level":-99,"color_range":"pc","refs":1,"r_frame_rate":"25/1","avg_frame_rate":"25/1","time_base":"1/25","disposition":{"default":0,"dub":0,"original":0,"comment":0,"lyrics":0,"karaoke":0,"forced":0,"hearing_impaired":0,"visual_impaired":0,"clean_effects":0,"attached_pic":0,"timed_thumbnails":0}}],"format":{"filename":"/home/music/BØRNS (BORNS) - Dopamine (Target Deluxe Edition) (2015) [CD-FLAC] [sn3h1t87] [GloDLS]/Downloaded from www.GloDLS.to.png","nb_streams":1,"nb_programs":0,"format_name":"png_pipe","format_long_name":"piped png sequence","size":"2610","probe_score":99},"date_added":1674233951233},{"streams":[{"index":0,"codec_name":"mjpeg","codec_long_name":"Motion JPEG","profile":"Baseline","codec_type":"video","codec_tag_string":"[0][0][0][0]","codec_tag":"0x0000","width":2488,"height":1392,"coded_width":2488,"coded_height":1392,"closed_captions":0,"has_b_frames":0,"pix_fmt":"yuvj444p","level":-99,"color_range":"pc","color_space":"bt470bg","chroma_location":"center","refs":1,"r_frame_rate":"25/1","avg_frame_rate":"25/1","time_base":"1/25","start_pts":0,"start_time":"0.000000","duration_ts":1,"duration":"0.040000","bits_per_raw_sample":"8","disposition":{"default":0,"dub":0,"original":0,"comment":0,"lyrics":0,"karaoke":0,"forced":0,"hearing_impaired":0,"visual_impaired":0,"clean_effects":0,"attached_pic":0,"timed_thumbnails":0}}],"format":{"filename":"/home/music/BØRNS (BORNS) - Dopamine (Target Deluxe Edition) (2015) [CD-FLAC] [sn3h1t87] [GloDLS]/Proof.jpg","nb_streams":1,"nb_programs":0,"format_name":"image2","format_long_name":"image2 sequence","start_time":"0.000000","duration":"0.040000","size":"606242","bit_rate":"121248400","probe_score":50},"date_added":1674233951234},{"streams":[{"index":0,"codec_name":"flac","codec_long_name":"FLAC (Free Lossless Audio Codec)","codec_type":"audio","codec_tag_string":"[0][0][0][0]","codec_tag":"0x0000","sample_fmt":"s16","sample_rate":"44100","channels":2,"channel_layout":"stereo","bits_per_sample":0,"r_frame_rate":"0/0","avg_frame_rate":"0/0","time_base":"1/44100","start_pts":0,"start_time":"0.000000","duration_ts":11938516,"duration":"270.714649","bits_per_raw_sample":"16","disposition":{"default":0,"dub":0,"original":0,"comment":0,"lyrics":0,"karaoke":0,"forced":0,"hearing_impaired":0,"visual_impaired":0,"clean_effects":0,"attached_pic":0,"timed_thumbnails":0}},{"index":1,"codec_name":"mjpeg","codec_long_name":"Motion JPEG","profile":"Progressive","codec_type":"video","codec_tag_string":"[0][0][0][0]","codec_tag":"0x0000","width":1280,"height":1280,"coded_width":1280,"coded_height":1280,"closed_captions":0,"has_b_frames":0,"sample_aspect_ratio":"1:1","display_aspect_ratio":"1:1","pix_fmt":"yuvj444p","level":-99,"color_range":"pc","color_space":"bt470bg","chroma_location":"center","refs":1,"r_frame_rate":"90000/1","avg_frame_rate":"0/0","time_base":"1/90000","start_pts":0,"start_time":"0.000000","duration_ts":24364318,"duration":"270.714644","bits_per_raw_sample":"8","disposition":{"default":0,"dub":0,"original":0,"comment":0,"lyrics":0,"karaoke":0,"forced":0,"hearing_impaired":0,"visual_impaired":0,"clean_effects":0,"attached_pic":1,"timed_thumbnails":0},"tags":{"comment":"Cover (front)","title":"cover.jpg"}}],"format":{"filename":"/home/music/Travis Scott - ASTROWORLD (2018) [FLAC]/01. STARGAZING.flac","nb_streams":2,"nb_programs":0,"format_name":"flac","format_long_name":"raw FLAC","start_time":"0.000000","duration":"270.714649","size":"32282810","bit_rate":"954002","probe_score":100,"tags":{"Comment":"https://musicriders.blogspot.com/ ","Upload":"Hunter","TITLE":"STARGAZING","Album":"ASTROWORLD","Artist":"Travis Scott","Genre":"Hip-Hop/Rap","disc":"1","Date":"2018","track":"01","album_artist":"Travis Scott"}},"date_added":1674233951234},{"streams":[{"index":0,"codec_name":"flac","codec_long_name":"FLAC (Free Lossless Audio Codec)","codec_type":"audio","codec_tag_string":"[0][0][0][0]","codec_tag":"0x0000","sample_fmt":"s16","sample_rate":"44100","channels":2,"channel_layout":"stereo","bits_per_sample":0,"r_frame_rate":"0/0","avg_frame_rate":"0/0","time_base":"1/44100","start_pts":0,"start_time":"0.000000","duration_ts":7946051,"duration":"180.182562","bits_per_raw_sample":"16","disposition":{"default":0,"dub":0,"original":0,"comment":0,"lyrics":0,"karaoke":0,"forced":0,"hearing_impaired":0,"visual_impaired":0,"clean_effects":0,"attached_pic":0,"timed_thumbnails":0}},{"index":1,"codec_name":"mjpeg","codec_long_name":"Motion JPEG","profile":"Progressive","codec_type":"video","codec_tag_string":"[0][0][0][0]","codec_tag":"0x0000","width":1280,"height":1280,"coded_width":1280,"coded_height":1280,"closed_captions":0,"has_b_frames":0,"sample_aspect_ratio":"1:1","display_aspect_ratio":"1:1","pix_fmt":"yuvj444p","level":-99,"color_range":"pc","color_space":"bt470bg","chroma_location":"center","refs":1,"r_frame_rate":"90000/1","avg_frame_rate":"0/0","time_base":"1/90000","start_pts":0,"start_time":"0.000000","duration_ts":16216431,"duration":"180.182567","bits_per_raw_sample":"8","disposition":{"default":0,"dub":0,"original":0,"comment":0,"lyrics":0,"karaoke":0,"forced":0,"hearing_impaired":0,"visual_impaired":0,"clean_effects":0,"attached_pic":1,"timed_thumbnails":0},"tags":{"comment":"Cover (front)","title":"cover.jpg"}}],"format":{"filename":"/home/music/Travis Scott - ASTROWORLD (2018) [FLAC]/02. CAROUSEL.flac","nb_streams":2,"nb_programs":0,"format_name":"flac","format_long_name":"raw FLAC","start_time":"0.000000","duration":"180.182562","size":"20168877","bit_rate":"895486","probe_score":100,"tags":{"Comment":"https://musicriders.blogspot.com/ ","Upload":"Hunter","TITLE":"CAROUSEL","Album":"ASTROWORLD","Artist":"Travis Scott","Genre":"Hip-Hop/Rap","disc":"1","Date":"2018","track":"02","album_artist":"Travis Scott"}},"date_added":1674233951234},{"streams":[{"index":0,"codec_name":"flac","codec_long_name":"FLAC (Free Lossless Audio Codec)","codec_type":"audio","codec_tag_string":"[0][0][0][0]","codec_tag":"0x0000","sample_fmt":"s16","sample_rate":"44100","channels":2,"channel_layout":"stereo","bits_per_sample":0,"r_frame_rate":"0/0","avg_frame_rate":"0/0","time_base":"1/44100","start_pts":0,"start_time":"0.000000","duration_ts":13795380,"duration":"312.820408","bits_per_raw_sample":"16","disposition":{"default":0,"dub":0,"original":0,"comment":0,"lyrics":0,"karaoke":0,"forced":0,"hearing_impaired":0,"visual_impaired":0,"clean_effects":0,"attached_pic":0,"timed_thumbnails":0}},{"index":1,"codec_name":"mjpeg","codec_long_name":"Motion JPEG","profile":"Progressive","codec_type":"video","codec_tag_string":"[0][0][0][0]","codec_tag":"0x0000","width":1280,"height":1280,"coded_width":1280,"coded_height":1280,"closed_captions":0,"has_b_frames":0,"sample_aspect_ratio":"1:1","display_aspect_ratio":"1:1","pix_fmt":"yuvj444p","level":-99,"color_range":"pc","color_space":"bt470bg","chroma_location":"center","refs":1,"r_frame_rate":"90000/1","avg_frame_rate":"0/0","time_base":"1/90000","start_pts":0,"start_time":"0.000000","duration_ts":28153837,"duration":"312.820411","bits_per_raw_sample":"8","disposition":{"default":0,"dub":0,"original":0,"comment":0,"lyrics":0,"karaoke":0,"forced":0,"hearing_impaired":0,"visual_impaired":0,"clean_effects":0,"attached_pic":1,"timed_thumbnails":0},"tags":{"comment":"Cover (front)","title":"cover.jpg"}}],"format":{"filename":"/home/music/Travis Scott - ASTROWORLD (2018) [FLAC]/03. SICKO MODE.flac","nb_streams":2,"nb_programs":0,"format_name":"flac","format_long_name":"raw FLAC","start_time":"0.000000","duration":"312.820408","size":"34603424","bit_rate":"884940","probe_score":100,"tags":{"Comment":"https://musicriders.blogspot.com/ ","Upload":"Hunter","TITLE":"SICKO MODE","Album":"ASTROWORLD","Artist":"Travis Scott","Genre":"Hip-Hop/Rap","disc":"1","Date":"2018","track":"03","album_artist":"Travis Scott"}},"date_added":1674233951234},{"streams":[{"index":0,"codec_name":"flac","codec_long_name":"FLAC (Free Lossless Audio Codec)","codec_type":"audio","codec_tag_string":"[0][0][0][0]","codec_tag":"0x0000","sample_fmt":"s16","sample_rate":"44100","channels":2,"channel_layout":"stereo","bits_per_sample":0,"r_frame_rate":"0/0","avg_frame_rate":"0/0","time_base":"1/44100","start_pts":0,"start_time":"0.000000","duration_ts":8185415,"duration":"185.610317","bits_per_raw_sample":"16","disposition":{"default":0,"dub":0,"original":0,"comment":0,"lyrics":0,"karaoke":0,"forced":0,"hearing_impaired":0,"visual_impaired":0,"clean_effects":0,"attached_pic":0,"timed_thumbnails":0}},{"index":1,"codec_name":"mjpeg","codec_long_name":"Motion JPEG","profile":"Progressive","codec_type":"video","codec_tag_string":"[0][0][0][0]","codec_tag":"0x0000","width":1280,"height":1280,"coded_width":1280,"coded_height":1280,"closed_captions":0,"has_b_frames":0,"sample_aspect_ratio":"1:1","display_aspect_ratio":"1:1","pix_fmt":"yuvj444p","level":-99,"color_range":"pc","color_space":"bt470bg","chroma_location":"center","refs":1,"r_frame_rate":"90000/1","avg_frame_rate":"0/0","time_base":"1/90000","start_pts":0,"start_time":"0.000000","duration_ts":16704929,"duration":"185.610322","bits_per_raw_sample":"8","disposition":{"default":0,"dub":0,"original":0,"comment":0,"lyrics":0,"karaoke":0,"forced":0,"hearing_impaired":0,"visual_impaired":0,"clean_effects":0,"attached_pic":1,"timed_thumbnails":0},"tags":{"comment":"Cover (front)","title":"cover.jpg"}}],"format":{"filename":"/home/music/Travis Scott - ASTROWORLD (2018) [FLAC]/04. R.I.P. SCREW.flac","nb_streams":2,"nb_programs":0,"format_name":"flac","format_long_name":"raw FLAC","start_time":"0.000000","duration":"185.610317","size":"19934158","bit_rate":"859183","probe_score":100,"tags":{"Comment":"https://musicriders.blogspot.com/ ","Upload":"Hunter","TITLE":"R.I.P. SCREW","Album":"ASTROWORLD","Artist":"Travis Scott","Genre":"Hip-Hop/Rap","disc":"1","Date":"2018","track":"04","album_artist":"Travis Scott"}},"date_added":1674233951234},{"streams":[{"index":0,"codec_name":"flac","codec_long_name":"FLAC (Free Lossless Audio Codec)","codec_type":"audio","codec_tag_string":"[0][0][0][0]","codec_tag":"0x0000","sample_fmt":"s16","sample_rate":"44100","channels":2,"channel_layout":"stereo","bits_per_sample":0,"r_frame_rate":"0/0","avg_frame_rate":"0/0","time_base":"1/44100","start_pts":0,"start_time":"0.000000","duration_ts":14925119,"duration":"338.438073","bits_per_raw_sample":"16","disposition":{"default":0,"dub":0,"original":0,"comment":0,"lyrics":0,"karaoke":0,"forced":0,"hearing_impaired":0,"visual_impaired":0,"clean_effects":0,"attached_pic":0,"timed_thumbnails":0}},{"index":1,"codec_name":"mjpeg","codec_long_name":"Motion JPEG","profile":"Progressive","codec_type":"video","codec_tag_string":"[0][0][0][0]","codec_tag":"0x0000","width":1280,"height":1280,"coded_width":1280,"coded_height":1280,"closed_captions":0,"has_b_frames":0,"sample_aspect_ratio":"1:1","display_aspect_ratio":"1:1","pix_fmt":"yuvj444p","level":-99,"color_range":"pc","color_space":"bt470bg","chroma_location":"center","refs":1,"r_frame_rate":"90000/1","avg_frame_rate":"0/0","time_base":"1/90000","start_pts":0,"start_time":"0.000000","duration_ts":30459427,"duration":"338.438078","bits_per_raw_sample":"8","disposition":{"default":0,"dub":0,"original":0,"comment":0,"lyrics":0,"karaoke":0,"forced":0,"hearing_impaired":0,"visual_impaired":0,"clean_effects":0,"attached_pic":1,"timed_thumbnails":0},"tags":{"comment":"Cover (front)","title":"cover.jpg"}}],"format":{"filename":"/home/music/Travis Scott - ASTROWORLD (2018) [FLAC]/05. STOP TRYING TO BE GOD.flac","nb_streams":2,"nb_programs":0,"format_name":"flac","format_long_name":"raw FLAC","start_time":"0.000000","duration":"338.438073","size":"41815475","bit_rate":"988434","probe_score":100,"tags":{"Comment":"https://musicriders.blogspot.com/ ","Upload":"Hunter","TITLE":"STOP TRYING TO BE GOD","Album":"ASTROWORLD","Artist":"Travis Scott","Genre":"Hip-Hop/Rap","disc":"1","Date":"2018","track":"05","album_artist":"Travis Scott"}},"date_added":1674233951234},{"streams":[{"index":0,"codec_name":"flac","codec_long_name":"FLAC (Free Lossless Audio Codec)","codec_type":"audio","codec_tag_string":"[0][0][0][0]","codec_tag":"0x0000","sample_fmt":"s16","sample_rate":"44100","channels":2,"channel_layout":"stereo","bits_per_sample":0,"r_frame_rate":"0/0","avg_frame_rate":"0/0","time_base":"1/44100","start_pts":0,"start_time":"0.000000","duration_ts":9626302,"duration":"218.283492","bits_per_raw_sample":"16","disposition":{"default":0,"dub":0,"original":0,"comment":0,"lyrics":0,"karaoke":0,"forced":0,"hearing_impaired":0,"visual_impaired":0,"clean_effects":0,"attached_pic":0,"timed_thumbnails":0}},{"index":1,"codec_name":"mjpeg","codec_long_name":"Motion JPEG","profile":"Progressive","codec_type":"video","codec_tag_string":"[0][0][0][0]","codec_tag":"0x0000","width":1280,"height":1280,"coded_width":1280,"coded_height":1280,"closed_captions":0,"has_b_frames":0,"sample_aspect_ratio":"1:1","display_aspect_ratio":"1:1","pix_fmt":"yuvj444p","level":-99,"color_range":"pc","color_space":"bt470bg","chroma_location":"center","refs":1,"r_frame_rate":"90000/1","avg_frame_rate":"0/0","time_base":"1/90000","start_pts":0,"start_time":"0.000000","duration_ts":19645514,"duration":"218.283489","bits_per_raw_sample":"8","disposition":{"default":0,"dub":0,"original":0,"comment":0,"lyrics":0,"karaoke":0,"forced":0,"hearing_impaired":0,"visual_impaired":0,"clean_effects":0,"attached_pic":1,"timed_thumbnails":0},"tags":{"comment":"Cover (front)","title":"cover.jpg"}}],"format":{"filename":"/home/music/Travis Scott - ASTROWORLD (2018) [FLAC]/06. NO BYSTANDERS.flac","nb_streams":2,"nb_programs":0,"format_name":"flac","format_long_name":"raw FLAC","start_time":"0.000000","duration":"218.283492","size":"27172865","bit_rate":"995874","probe_score":100,"tags":{"Comment":"https://musicriders.blogspot.com/ ","Upload":"Hunter","TITLE":"NO BYSTANDERS","Album":"ASTROWORLD","Artist":"Travis Scott","Genre":"Hip-Hop/Rap","disc":"1","Date":"2018","track":"06","album_artist":"Travis Scott"}},"date_added":1674233951234},{"streams":[{"index":0,"codec_name":"flac","codec_long_name":"FLAC (Free Lossless Audio Codec)","codec_type":"audio","codec_tag_string":"[0][0][0][0]","codec_tag":"0x0000","sample_fmt":"s16","sample_rate":"44100","channels":2,"channel_layout":"stereo","bits_per_sample":0,"r_frame_rate":"0/0","avg_frame_rate":"0/0","time_base":"1/44100","start_pts":0,"start_time":"0.000000","duration_ts":6420452,"duration":"145.588481","bits_per_raw_sample":"16","disposition":{"default":0,"dub":0,"original":0,"comment":0,"lyrics":0,"karaoke":0,"forced":0,"hearing_impaired":0,"visual_impaired":0,"clean_effects":0,"attached_pic":0,"timed_thumbnails":0}},{"index":1,"codec_name":"mjpeg","codec_long_name":"Motion JPEG","profile":"Progressive","codec_type":"video","codec_tag_string":"[0][0][0][0]","codec_tag":"0x0000","width":1280,"height":1280,"coded_width":1280,"coded_height":1280,"closed_captions":0,"has_b_frames":0,"sample_aspect_ratio":"1:1","display_aspect_ratio":"1:1","pix_fmt":"yuvj444p","level":-99,"color_range":"pc","color_space":"bt470bg","chroma_location":"center","refs":1,"r_frame_rate":"90000/1","avg_frame_rate":"0/0","time_base":"1/90000","start_pts":0,"start_time":"0.000000","duration_ts":13102963,"duration":"145.588478","bits_per_raw_sample":"8","disposition":{"default":0,"dub":0,"original":0,"comment":0,"lyrics":0,"karaoke":0,"forced":0,"hearing_impaired":0,"visual_impaired":0,"clean_effects":0,"attached_pic":1,"timed_thumbnails":0},"tags":{"comment":"Cover (front)","title":"cover.jpg"}}],"format":{"filename":"/home/music/Travis Scott - ASTROWORLD (2018) [FLAC]/07. SKELETONS.flac","nb_streams":2,"nb_programs":0,"format_name":"flac","format_long_name":"raw FLAC","start_time":"0.000000","duration":"145.588481","size":"17439102","bit_rate":"958268","probe_score":100,"tags":{"Comment":"https://musicriders.blogspot.com/ ","Upload":"Hunter","TITLE":"SKELETONS","Album":"ASTROWORLD","Artist":"Travis Scott","Genre":"Hip-Hop/Rap","disc":"1","Date":"2018","track":"07","album_artist":"Travis Scott"}},"date_added":1674233951234},{"streams":[{"index":0,"codec_name":"flac","codec_long_name":"FLAC (Free Lossless Audio Codec)","codec_type":"audio","codec_tag_string":"[0][0][0][0]","codec_tag":"0x0000","sample_fmt":"s16","sample_rate":"44100","channels":2,"channel_layout":"stereo","bits_per_sample":0,"r_frame_rate":"0/0","avg_frame_rate":"0/0","time_base":"1/44100","start_pts":0,"start_time":"0.000000","duration_ts":10229612,"duration":"231.963991","bits_per_raw_sample":"16","disposition":{"default":0,"dub":0,"original":0,"comment":0,"lyrics":0,"karaoke":0,"forced":0,"hearing_impaired":0,"visual_impaired":0,"clean_effects":0,"attached_pic":0,"timed_thumbnails":0}},{"index":1,"codec_name":"mjpeg","codec_long_name":"Motion JPEG","profile":"Progressive","codec_type":"video","codec_tag_string":"[0][0][0][0]","codec_tag":"0x0000","width":1280,"height":1280,"coded_width":1280,"coded_height":1280,"closed_captions":0,"has_b_frames":0,"sample_aspect_ratio":"1:1","display_aspect_ratio":"1:1","pix_fmt":"yuvj444p","level":-99,"color_range":"pc","color_space":"bt470bg","chroma_location":"center","refs":1,"r_frame_rate":"90000/1","avg_frame_rate":"0/0","time_base":"1/90000","start_pts":0,"start_time":"0.000000","duration_ts":20876759,"duration":"231.963989","bits_per_raw_sample":"8","disposition":{"default":0,"dub":0,"original":0,"comment":0,"lyrics":0,"karaoke":0,"forced":0,"hearing_impaired":0,"visual_impaired":0,"clean_effects":0,"attached_pic":1,"timed_thumbnails":0},"tags":{"comment":"Cover (front)","title":"cover.jpg"}}],"format":{"filename":"/home/music/Travis Scott - ASTROWORLD (2018) [FLAC]/08. WAKE UP.flac","nb_streams":2,"nb_programs":0,"format_name":"flac","format_long_name":"raw FLAC","start_time":"0.000000","duration":"231.963991","size":"25016306","bit_rate":"862765","probe_score":100,"tags":{"Comment":"https://musicriders.blogspot.com/ ","Upload":"Hunter","TITLE":"WAKE UP","Album":"ASTROWORLD","Artist":"Travis Scott","Genre":"Hip-Hop/Rap","disc":"1","Date":"2018","track":"08","album_artist":"Travis Scott"}},"date_added":1674233951234},{"streams":[{"index":0,"codec_name":"flac","codec_long_name":"FLAC (Free Lossless Audio Codec)","codec_type":"audio","codec_tag_string":"[0][0][0][0]","codec_tag":"0x0000","sample_fmt":"s16","sample_rate":"44100","channels":2,"channel_layout":"stereo","bits_per_sample":0,"r_frame_rate":"0/0","avg_frame_rate":"0/0","time_base":"1/44100","start_pts":0,"start_time":"0.000000","duration_ts":8649707,"duration":"196.138481","bits_per_raw_sample":"16","disposition":{"default":0,"dub":0,"original":0,"comment":0,"lyrics":0,"karaoke":0,"forced":0,"hearing_impaired":0,"visual_impaired":0,"clean_effects":0,"attached_pic":0,"timed_thumbnails":0}},{"index":1,"codec_name":"mjpeg","codec_long_name":"Motion JPEG","profile":"Progressive","codec_type":"video","codec_tag_string":"[0][0][0][0]","codec_tag":"0x0000","width":1280,"height":1280,"coded_width":1280,"coded_height":1280,"closed_captions":0,"has_b_frames":0,"sample_aspect_ratio":"1:1","display_aspect_ratio":"1:1","pix_fmt":"yuvj444p","level":-99,"color_range":"pc","color_space":"bt470bg","chroma_location":"center","refs":1,"r_frame_rate":"90000/1","avg_frame_rate":"0/0","time_base":"1/90000","start_pts":0,"start_time":"0.000000","duration_ts":17652463,"duration":"196.138478","bits_per_raw_sample":"8","disposition":{"default":0,"dub":0,"original":0,"comment":0,"lyrics":0,"karaoke":0,"forced":0,"hearing_impaired":0,"visual_impaired":0,"clean_effects":0,"attached_pic":1,"timed_thumbnails":0},"tags":{"comment":"Cover (front)","title":"cover.jpg"}}],"format":{"filename":"/home/music/Travis Scott - ASTROWORLD (2018) [FLAC]/09. 5% TINT.flac","nb_streams":2,"nb_programs":0,"format_name":"flac","format_long_name":"raw FLAC","start_time":"0.000000","duration":"196.138481","size":"23267375","bit_rate":"949018","probe_score":100,"tags":{"Comment":"https://musicriders.blogspot.com/ ","Upload":"Hunter","TITLE":"5% TINT","Album":"ASTROWORLD","Artist":"Travis Scott","Genre":"Hip-Hop/Rap","disc":"1","Date":"2018","track":"09","album_artist":"Travis Scott"}},"date_added":1674233951234},{"streams":[{"index":0,"codec_name":"flac","codec_long_name":"FLAC (Free Lossless Audio Codec)","codec_type":"audio","codec_tag_string":"[0][0][0][0]","codec_tag":"0x0000","sample_fmt":"s16","sample_rate":"44100","channels":2,"channel_layout":"stereo","bits_per_sample":0,"r_frame_rate":"0/0","avg_frame_rate":"0/0","time_base":"1/44100","start_pts":0,"start_time":"0.000000","duration_ts":6918659,"duration":"156.885692","bits_per_raw_sample":"16","disposition":{"default":0,"dub":0,"original":0,"comment":0,"lyrics":0,"karaoke":0,"forced":0,"hearing_impaired":0,"visual_impaired":0,"clean_effects":0,"attached_pic":0,"timed_thumbnails":0}},{"index":1,"codec_name":"mjpeg","codec_long_name":"Motion JPEG","profile":"Progressive","codec_type":"video","codec_tag_string":"[0][0][0][0]","codec_tag":"0x0000","width":1280,"height":1280,"coded_width":1280,"coded_height":1280,"closed_captions":0,"has_b_frames":0,"sample_aspect_ratio":"1:1","display_aspect_ratio":"1:1","pix_fmt":"yuvj444p","level":-99,"color_range":"pc","color_space":"bt470bg","chroma_location":"center","refs":1,"r_frame_rate":"90000/1","avg_frame_rate":"0/0","time_base":"1/90000","start_pts":0,"start_time":"0.000000","duration_ts":14119712,"duration":"156.885689","bits_per_raw_sample":"8","disposition":{"default":0,"dub":0,"original":0,"comment":0,"lyrics":0,"karaoke":0,"forced":0,"hearing_impaired":0,"visual_impaired":0,"clean_effects":0,"attached_pic":1,"timed_thumbnails":0},"tags":{"comment":"Cover (front)","title":"cover.jpg"}}],"format":{"filename":"/home/music/Travis Scott - ASTROWORLD (2018) [FLAC]/10. NC-17.flac","nb_streams":2,"nb_programs":0,"format_name":"flac","format_long_name":"raw FLAC","start_time":"0.000000","duration":"156.885692","size":"18282436","bit_rate":"932267","probe_score":100,"tags":{"Comment":"https://musicriders.blogspot.com/ ","Upload":"Hunter","TITLE":"NC-17","Album":"ASTROWORLD","Artist":"Travis Scott","Genre":"Hip-Hop/Rap","disc":"1","Date":"2018","track":"10","album_artist":"Travis Scott"}},"date_added":1674233951234},{"streams":[{"index":0,"codec_name":"flac","codec_long_name":"FLAC (Free Lossless Audio Codec)","codec_type":"audio","codec_tag_string":"[0][0][0][0]","codec_tag":"0x0000","sample_fmt":"s16","sample_rate":"44100","channels":2,"channel_layout":"stereo","bits_per_sample":0,"r_frame_rate":"0/0","avg_frame_rate":"0/0","time_base":"1/44100","start_pts":0,"start_time":"0.000000","duration_ts":6304947,"duration":"142.969320","bits_per_raw_sample":"16","disposition":{"default":0,"dub":0,"original":0,"comment":0,"lyrics":0,"karaoke":0,"forced":0,"hearing_impaired":0,"visual_impaired":0,"clean_effects":0,"attached_pic":0,"timed_thumbnails":0}},{"index":1,"codec_name":"mjpeg","codec_long_name":"Motion JPEG","profile":"Progressive","codec_type":"video","codec_tag_string":"[0][0][0][0]","codec_tag":"0x0000","width":1280,"height":1280,"coded_width":1280,"coded_height":1280,"closed_captions":0,"has_b_frames":0,"sample_aspect_ratio":"1:1","display_aspect_ratio":"1:1","pix_fmt":"yuvj444p","level":-99,"color_range":"pc","color_space":"bt470bg","chroma_location":"center","refs":1,"r_frame_rate":"90000/1","avg_frame_rate":"0/0","time_base":"1/90000","start_pts":0,"start_time":"0.000000","duration_ts":12867239,"duration":"142.969322","bits_per_raw_sample":"8","disposition":{"default":0,"dub":0,"original":0,"comment":0,"lyrics":0,"karaoke":0,"forced":0,"hearing_impaired":0,"visual_impaired":0,"clean_effects":0,"attached_pic":1,"timed_thumbnails":0},"tags":{"comment":"Cover (front)","title":"cover.jpg"}}],"format":{"filename":"/home/music/Travis Scott - ASTROWORLD (2018) [FLAC]/11. ASTROTHUNDER.flac","nb_streams":2,"nb_programs":0,"format_name":"flac","format_long_name":"raw FLAC","start_time":"0.000000","duration":"142.969320","size":"15085277","bit_rate":"844112","probe_score":100,"tags":{"Comment":"https://musicriders.blogspot.com/ ","Upload":"Hunter","TITLE":"ASTROTHUNDER","Album":"ASTROWORLD","Artist":"Travis Scott","Genre":"Hip-Hop/Rap","disc":"1","Date":"2018","track":"11","album_artist":"Travis Scott"}},"date_added":1674233951234},{"streams":[{"index":0,"codec_name":"flac","codec_long_name":"FLAC (Free Lossless Audio Codec)","codec_type":"audio","codec_tag_string":"[0][0][0][0]","codec_tag":"0x0000","sample_fmt":"s16","sample_rate":"44100","channels":2,"channel_layout":"stereo","bits_per_sample":0,"r_frame_rate":"0/0","avg_frame_rate":"0/0","time_base":"1/44100","start_pts":0,"start_time":"0.000000","duration_ts":6616901,"duration":"150.043107","bits_per_raw_sample":"16","disposition":{"default":0,"dub":0,"original":0,"comment":0,"lyrics":0,"karaoke":0,"forced":0,"hearing_impaired":0,"visual_impaired":0,"clean_effects":0,"attached_pic":0,"timed_thumbnails":0}},{"index":1,"codec_name":"mjpeg","codec_long_name":"Motion JPEG","profile":"Progressive","codec_type":"video","codec_tag_string":"[0][0][0][0]","codec_tag":"0x0000","width":1280,"height":1280,"coded_width":1280,"coded_height":1280,"closed_captions":0,"has_b_frames":0,"sample_aspect_ratio":"1:1","display_aspect_ratio":"1:1","pix_fmt":"yuvj444p","level":-99,"color_range":"pc","color_space":"bt470bg","chroma_location":"center","refs":1,"r_frame_rate":"90000/1","avg_frame_rate":"0/0","time_base":"1/90000","start_pts":0,"start_time":"0.000000","duration_ts":13503880,"duration":"150.043111","bits_per_raw_sample":"8","disposition":{"default":0,"dub":0,"original":0,"comment":0,"lyrics":0,"karaoke":0,"forced":0,"hearing_impaired":0,"visual_impaired":0,"clean_effects":0,"attached_pic":1,"timed_thumbnails":0},"tags":{"comment":"Cover (front)","title":"cover.jpg"}}],"format":{"filename":"/home/music/Travis Scott - ASTROWORLD (2018) [FLAC]/12. YOSEMITE.flac","nb_streams":2,"nb_programs":0,"format_name":"flac","format_long_name":"raw FLAC","start_time":"0.000000","duration":"150.043107","size":"17482016","bit_rate":"932106","probe_score":100,"tags":{"Comment":"https://musicriders.blogspot.com/ ","Upload":"Hunter","TITLE":"YOSEMITE","Album":"ASTROWORLD","Artist":"Travis Scott","Genre":"Hip-Hop/Rap","disc":"1","Date":"2018","track":"12","album_artist":"Travis Scott"}},"date_added":1674233951235},{"streams":[{"index":0,"codec_name":"flac","codec_long_name":"FLAC (Free Lossless Audio Codec)","codec_type":"audio","codec_tag_string":"[0][0][0][0]","codec_tag":"0x0000","sample_fmt":"s16","sample_rate":"44100","channels":2,"channel_layout":"stereo","bits_per_sample":0,"r_frame_rate":"0/0","avg_frame_rate":"0/0","time_base":"1/44100","start_pts":0,"start_time":"0.000000","duration_ts":7793363,"duration":"176.720249","bits_per_raw_sample":"16","disposition":{"default":0,"dub":0,"original":0,"comment":0,"lyrics":0,"karaoke":0,"forced":0,"hearing_impaired":0,"visual_impaired":0,"clean_effects":0,"attached_pic":0,"timed_thumbnails":0}},{"index":1,"codec_name":"mjpeg","codec_long_name":"Motion JPEG","profile":"Progressive","codec_type":"video","codec_tag_string":"[0][0][0][0]","codec_tag":"0x0000","width":1280,"height":1280,"coded_width":1280,"coded_height":1280,"closed_captions":0,"has_b_frames":0,"sample_aspect_ratio":"1:1","display_aspect_ratio":"1:1","pix_fmt":"yuvj444p","level":-99,"color_range":"pc","color_space":"bt470bg","chroma_location":"center","refs":1,"r_frame_rate":"90000/1","avg_frame_rate":"0/0","time_base":"1/90000","start_pts":0,"start_time":"0.000000","duration_ts":15904822,"duration":"176.720244","bits_per_raw_sample":"8","disposition":{"default":0,"dub":0,"original":0,"comment":0,"lyrics":0,"karaoke":0,"forced":0,"hearing_impaired":0,"visual_impaired":0,"clean_effects":0,"attached_pic":1,"timed_thumbnails":0},"tags":{"comment":"Cover (front)","title":"cover.jpg"}}],"format":{"filename":"/home/music/Travis Scott - ASTROWORLD (2018) [FLAC]/14. WHO WHAT!.flac","nb_streams":2,"nb_programs":0,"format_name":"flac","format_long_name":"raw FLAC","start_time":"0.000000","duration":"176.720249","size":"22265673","bit_rate":"1007951","probe_score":100,"tags":{"Comment":"https://musicriders.blogspot.com/ ","Upload":"Hunter","TITLE":"WHO? WHAT!","Album":"ASTROWORLD","Artist":"Travis Scott","Genre":"Hip-Hop/Rap","disc":"1","Date":"2018","track":"14","album_artist":"Travis Scott"}},"date_added":1674233951235},{"streams":[{"index":0,"codec_name":"flac","codec_long_name":"FLAC (Free Lossless Audio Codec)","codec_type":"audio","codec_tag_string":"[0][0][0][0]","codec_tag":"0x0000","sample_fmt":"s16","sample_rate":"44100","channels":2,"channel_layout":"stereo","bits_per_sample":0,"r_frame_rate":"0/0","avg_frame_rate":"0/0","time_base":"1/44100","start_pts":0,"start_time":"0.000000","duration_ts":8403569,"duration":"190.557120","bits_per_raw_sample":"16","disposition":{"default":0,"dub":0,"original":0,"comment":0,"lyrics":0,"karaoke":0,"forced":0,"hearing_impaired":0,"visual_impaired":0,"clean_effects":0,"attached_pic":0,"timed_thumbnails":0}},{"index":1,"codec_name":"mjpeg","codec_long_name":"Motion JPEG","profile":"Progressive","codec_type":"video","codec_tag_string":"[0][0][0][0]","codec_tag":"0x0000","width":1280,"height":1280,"coded_width":1280,"coded_height":1280,"closed_captions":0,"has_b_frames":0,"sample_aspect_ratio":"1:1","display_aspect_ratio":"1:1","pix_fmt":"yuvj444p","level":-99,"color_range":"pc","color_space":"bt470bg","chroma_location":"center","refs":1,"r_frame_rate":"90000/1","avg_frame_rate":"0/0","time_base":"1/90000","start_pts":0,"start_time":"0.000000","duration_ts":17150141,"duration":"190.557122","bits_per_raw_sample":"8","disposition":{"default":0,"dub":0,"original":0,"comment":0,"lyrics":0,"karaoke":0,"forced":0,"hearing_impaired":0,"visual_impaired":0,"clean_effects":0,"attached_pic":1,"timed_thumbnails":0},"tags":{"comment":"Cover (front)","title":"cover.jpg"}}],"format":{"filename":"/home/music/Travis Scott - ASTROWORLD (2018) [FLAC]/15. BUTTERFLY EFFECT.flac","nb_streams":2,"nb_programs":0,"format_name":"flac","format_long_name":"raw FLAC","start_time":"0.000000","duration":"190.557120","size":"23437274","bit_rate":"983947","probe_score":100,"tags":{"Comment":"https://musicriders.blogspot.com/ ","Upload":"Hunter","TITLE":"BUTTERFLY EFFECT","Album":"ASTROWORLD","Artist":"Travis Scott","Genre":"Hip-Hop/Rap","disc":"1","Date":"2018","track":"15","album_artist":"Travis Scott"}},"date_added":1674233951235},{"streams":[{"index":0,"codec_name":"flac","codec_long_name":"FLAC (Free Lossless Audio Codec)","codec_type":"audio","codec_tag_string":"[0][0][0][0]","codec_tag":"0x0000","sample_fmt":"s16","sample_rate":"44100","channels":2,"channel_layout":"stereo","bits_per_sample":0,"r_frame_rate":"0/0","avg_frame_rate":"0/0","time_base":"1/44100","start_pts":0,"start_time":"0.000000","duration_ts":9606231,"duration":"217.828367","bits_per_raw_sample":"16","disposition":{"default":0,"dub":0,"original":0,"comment":0,"lyrics":0,"karaoke":0,"forced":0,"hearing_impaired":0,"visual_impaired":0,"clean_effects":0,"attached_pic":0,"timed_thumbnails":0}},{"index":1,"codec_name":"mjpeg","codec_long_name":"Motion JPEG","profile":"Progressive","codec_type":"video","codec_tag_string":"[0][0][0][0]","codec_tag":"0x0000","width":1280,"height":1280,"coded_width":1280,"coded_height":1280,"closed_captions":0,"has_b_frames":0,"sample_aspect_ratio":"1:1","display_aspect_ratio":"1:1","pix_fmt":"yuvj444p","level":-99,"color_range":"pc","color_space":"bt470bg","chroma_location":"center","refs":1,"r_frame_rate":"90000/1","avg_frame_rate":"0/0","time_base":"1/90000","start_pts":0,"start_time":"0.000000","duration_ts":19604553,"duration":"217.828367","bits_per_raw_sample":"8","disposition":{"default":0,"dub":0,"original":0,"comment":0,"lyrics":0,"karaoke":0,"forced":0,"hearing_impaired":0,"visual_impaired":0,"clean_effects":0,"attached_pic":1,"timed_thumbnails":0},"tags":{"comment":"Cover (front)","title":"cover.jpg"}}],"format":{"filename":"/home/music/Travis Scott - ASTROWORLD (2018) [FLAC]/16. HOUSTONFORNICATION.flac","nb_streams":2,"nb_programs":0,"format_name":"flac","format_long_name":"raw FLAC","start_time":"0.000000","duration":"217.828367","size":"25890626","bit_rate":"950863","probe_score":100,"tags":{"Comment":"https://musicriders.blogspot.com/ ","Upload":"Hunter","TITLE":"HOUSTONFORNICATION","Album":"ASTROWORLD","Artist":"Travis Scott","Genre":"Hip-Hop/Rap","disc":"1","Date":"2018","track":"16","album_artist":"Travis Scott"}},"date_added":1674233951235},{"streams":[{"index":0,"codec_name":"flac","codec_long_name":"FLAC (Free Lossless Audio Codec)","codec_type":"audio","codec_tag_string":"[0][0][0][0]","codec_tag":"0x0000","sample_fmt":"s16","sample_rate":"44100","channels":2,"channel_layout":"stereo","bits_per_sample":0,"r_frame_rate":"0/0","avg_frame_rate":"0/0","time_base":"1/44100","start_pts":0,"start_time":"0.000000","duration_ts":9222002,"duration":"209.115692","bits_per_raw_sample":"16","disposition":{"default":0,"dub":0,"original":0,"comment":0,"lyrics":0,"karaoke":0,"forced":0,"hearing_impaired":0,"visual_impaired":0,"clean_effects":0,"attached_pic":0,"timed_thumbnails":0}},{"index":1,"codec_name":"mjpeg","codec_long_name":"Motion JPEG","profile":"Progressive","codec_type":"video","codec_tag_string":"[0][0][0][0]","codec_tag":"0x0000","width":1280,"height":1280,"coded_width":1280,"coded_height":1280,"closed_captions":0,"has_b_frames":0,"sample_aspect_ratio":"1:1","display_aspect_ratio":"1:1","pix_fmt":"yuvj444p","level":-99,"color_range":"pc","color_space":"bt470bg","chroma_location":"center","refs":1,"r_frame_rate":"90000/1","avg_frame_rate":"0/0","time_base":"1/90000","start_pts":0,"start_time":"0.000000","duration_ts":18820412,"duration":"209.115689","bits_per_raw_sample":"8","disposition":{"default":0,"dub":0,"original":0,"comment":0,"lyrics":0,"karaoke":0,"forced":0,"hearing_impaired":0,"visual_impaired":0,"clean_effects":0,"attached_pic":1,"timed_thumbnails":0},"tags":{"comment":"Cover (front)","title":"cover.jpg"}}],"format":{"filename":"/home/music/Travis Scott - ASTROWORLD (2018) [FLAC]/17. COFFEE BEAN.flac","nb_streams":2,"nb_programs":0,"format_name":"flac","format_long_name":"raw FLAC","start_time":"0.000000","duration":"209.115692","size":"22233565","bit_rate":"850574","probe_score":100,"tags":{"Comment":"https://musicriders.blogspot.com/ ","Upload":"Hunter","TITLE":"COFFEE BEAN","Album":"ASTROWORLD","Artist":"Travis Scott","Genre":"Hip-Hop/Rap","disc":"1","Date":"2018","track":"17","album_artist":"Travis Scott"}},"date_added":1674233951235},{"streams":[{"index":0,"codec_name":"mjpeg","codec_long_name":"Motion JPEG","profile":"Baseline","codec_type":"video","codec_tag_string":"[0][0][0][0]","codec_tag":"0x0000","width":600,"height":600,"coded_width":600,"coded_height":600,"closed_captions":0,"has_b_frames":0,"sample_aspect_ratio":"1:1","display_aspect_ratio":"1:1","pix_fmt":"yuvj444p","level":-99,"color_range":"pc","color_space":"bt470bg","chroma_location":"center","refs":1,"r_frame_rate":"25/1","avg_frame_rate":"25/1","time_base":"1/25","start_pts":0,"start_time":"0.000000","duration_ts":1,"duration":"0.040000","bits_per_raw_sample":"8","disposition":{"default":0,"dub":0,"original":0,"comment":0,"lyrics":0,"karaoke":0,"forced":0,"hearing_impaired":0,"visual_impaired":0,"clean_effects":0,"attached_pic":0,"timed_thumbnails":0}}],"format":{"filename":"/home/music/Travis Scott - ASTROWORLD (2018) [FLAC]/Cover.jpg","nb_streams":1,"nb_programs":0,"format_name":"image2","format_long_name":"image2 sequence","start_time":"0.000000","duration":"0.040000","size":"148678","bit_rate":"29735600","probe_score":50},"date_added":1674233951235},{"streams":[{"index":0,"codec_name":"flac","codec_long_name":"FLAC (Free Lossless Audio Codec)","codec_type":"audio","codec_tag_string":"[0][0][0][0]","codec_tag":"0x0000","sample_fmt":"s16","sample_rate":"44100","channels":2,"channel_layout":"stereo","bits_per_sample":0,"r_frame_rate":"0/0","avg_frame_rate":"0/0","time_base":"1/44100","start_pts":0,"start_time":"0.000000","duration_ts":4173624,"duration":"94.640000","bits_per_raw_sample":"16","disposition":{"default":0,"dub":0,"original":0,"comment":0,"lyrics":0,"karaoke":0,"forced":0,"hearing_impaired":0,"visual_impaired":0,"clean_effects":0,"attached_pic":0,"timed_thumbnails":0}}],"format":{"filename":"/home/music/[2021] Nurture [CD FLAC]/01 Lifelike.flac","nb_streams":1,"nb_programs":0,"format_name":"flac","format_long_name":"raw FLAC","start_time":"0.000000","duration":"94.640000","size":"9736308","bit_rate":"823018","probe_score":100,"tags":{"ARTIST":"Porter Robinson","TITLE":"Lifelike","ALBUM":"Nurture","DATE":"2021","track":"01","GENRE":"Progressive","COMPOSER":"Porter Robinson","disc":"1","ENCODER":"reference libFLAC 1.3.2 20170101","album_artist":"Porter Robinson","TRACKTOTAL":"15","DISCTOTAL":"1"}},"date_added":1674233951235},{"streams":[{"index":0,"codec_name":"flac","codec_long_name":"FLAC (Free Lossless Audio Codec)","codec_type":"audio","codec_tag_string":"[0][0][0][0]","codec_tag":"0x0000","sample_fmt":"s16","sample_rate":"44100","channels":2,"channel_layout":"stereo","bits_per_sample":0,"r_frame_rate":"0/0","avg_frame_rate":"0/0","time_base":"1/44100","start_pts":0,"start_time":"0.000000","duration_ts":13670412,"duration":"309.986667","bits_per_raw_sample":"16","disposition":{"default":0,"dub":0,"original":0,"comment":0,"lyrics":0,"karaoke":0,"forced":0,"hearing_impaired":0,"visual_impaired":0,"clean_effects":0,"attached_pic":0,"timed_thumbnails":0}}],"format":{"filename":"/home/music/[2021] Nurture [CD FLAC]/02 Look At The Sky.flac","nb_streams":1,"nb_programs":0,"format_name":"flac","format_long_name":"raw FLAC","start_time":"0.000000","duration":"309.986667","size":"37678248","bit_rate":"972383","probe_score":100,"tags":{"ARTIST":"Porter Robinson","TITLE":"Look At The Sky","ALBUM":"Nurture","DATE":"2021","track":"02","GENRE":"Progressive","COMPOSER":"Porter Robinson","disc":"1","ENCODER":"reference libFLAC 1.3.2 20170101","album_artist":"Porter Robinson","TRACKTOTAL":"15","DISCTOTAL":"1"}},"date_added":1674233951235},{"streams":[{"index":0,"codec_name":"flac","codec_long_name":"FLAC (Free Lossless Audio Codec)","codec_type":"audio","codec_tag_string":"[0][0][0][0]","codec_tag":"0x0000","sample_fmt":"s16","sample_rate":"44100","channels":2,"channel_layout":"stereo","bits_per_sample":0,"r_frame_rate":"0/0","avg_frame_rate":"0/0","time_base":"1/44100","start_pts":0,"start_time":"0.000000","duration_ts":9636144,"duration":"218.506667","bits_per_raw_sample":"16","disposition":{"default":0,"dub":0,"original":0,"comment":0,"lyrics":0,"karaoke":0,"forced":0,"hearing_impaired":0,"visual_impaired":0,"clean_effects":0,"attached_pic":0,"timed_thumbnails":0}}],"format":{"filename":"/home/music/[2021] Nurture [CD FLAC]/03 Get Your Wish.flac","nb_streams":1,"nb_programs":0,"format_name":"flac","format_long_name":"raw FLAC","start_time":"0.000000","duration":"218.506667","size":"28972294","bit_rate":"1060738","probe_score":100,"tags":{"ARTIST":"Porter Robinson","TITLE":"Get Your Wish","ALBUM":"Nurture","DATE":"2021","track":"03","GENRE":"Progressive","COMPOSER":"Porter Robinson","disc":"1","ENCODER":"reference libFLAC 1.3.2 20170101","album_artist":"Porter Robinson","TRACKTOTAL":"15","DISCTOTAL":"1"}},"date_added":1674233951235},{"streams":[{"index":0,"codec_name":"flac","codec_long_name":"FLAC (Free Lossless Audio Codec)","codec_type":"audio","codec_tag_string":"[0][0][0][0]","codec_tag":"0x0000","sample_fmt":"s16","sample_rate":"44100","channels":2,"channel_layout":"stereo","bits_per_sample":0,"r_frame_rate":"0/0","avg_frame_rate":"0/0","time_base":"1/44100","start_pts":0,"start_time":"0.000000","duration_ts":16057692,"duration":"364.120000","bits_per_raw_sample":"16","disposition":{"default":0,"dub":0,"original":0,"comment":0,"lyrics":0,"karaoke":0,"forced":0,"hearing_impaired":0,"visual_impaired":0,"clean_effects":0,"attached_pic":0,"timed_thumbnails":0}}],"format":{"filename":"/home/music/[2021] Nurture [CD FLAC]/04 Wind Tempos.flac","nb_streams":1,"nb_programs":0,"format_name":"flac","format_long_name":"raw FLAC","start_time":"0.000000","duration":"364.120000","size":"41085469","bit_rate":"902679","probe_score":100,"tags":{"ARTIST":"Porter Robinson","TITLE":"Wind Tempos","ALBUM":"Nurture","DATE":"2021","track":"04","GENRE":"Progressive","COMPOSER":"Elliot Jacobson","disc":"1","ENCODER":"reference libFLAC 1.3.2 20170101","album_artist":"Porter Robinson","TRACKTOTAL":"15","DISCTOTAL":"1"}},"date_added":1674233951235},{"streams":[{"index":0,"codec_name":"flac","codec_long_name":"FLAC (Free Lossless Audio Codec)","codec_type":"audio","codec_tag_string":"[0][0][0][0]","codec_tag":"0x0000","sample_fmt":"s16","sample_rate":"44100","channels":2,"channel_layout":"stereo","bits_per_sample":0,"r_frame_rate":"0/0","avg_frame_rate":"0/0","time_base":"1/44100","start_pts":0,"start_time":"0.000000","duration_ts":10534020,"duration":"238.866667","bits_per_raw_sample":"16","disposition":{"default":0,"dub":0,"original":0,"comment":0,"lyrics":0,"karaoke":0,"forced":0,"hearing_impaired":0,"visual_impaired":0,"clean_effects":0,"attached_pic":0,"timed_thumbnails":0}}],"format":{"filename":"/home/music/[2021] Nurture [CD FLAC]/05 Musician.flac","nb_streams":1,"nb_programs":0,"format_name":"flac","format_long_name":"raw FLAC","start_time":"0.000000","duration":"238.866667","size":"32411605","bit_rate":"1085512","probe_score":100,"tags":{"ARTIST":"Porter Robinson","TITLE":"Musician","ALBUM":"Nurture","DATE":"2021","track":"05","GENRE":"Progressive","COMPOSER":"Sarah Midori Perry","disc":"1","ENCODER":"reference libFLAC 1.3.2 20170101","album_artist":"Porter Robinson","TRACKTOTAL":"15","DISCTOTAL":"1"}},"date_added":1674233951235},{"streams":[{"index":0,"codec_name":"flac","codec_long_name":"FLAC (Free Lossless Audio Codec)","codec_type":"audio","codec_tag_string":"[0][0][0][0]","codec_tag":"0x0000","sample_fmt":"s16","sample_rate":"44100","channels":2,"channel_layout":"stereo","bits_per_sample":0,"r_frame_rate":"0/0","avg_frame_rate":"0/0","time_base":"1/44100","start_pts":0,"start_time":"0.000000","duration_ts":9478560,"duration":"214.933333","bits_per_raw_sample":"16","disposition":{"default":0,"dub":0,"original":0,"comment":0,"lyrics":0,"karaoke":0,"forced":0,"hearing_impaired":0,"visual_impaired":0,"clean_effects":0,"attached_pic":0,"timed_thumbnails":0}}],"format":{"filename":"/home/music/[2021] Nurture [CD FLAC]/06 do-re-mi-fa-so-la-ti-do.flac","nb_streams":1,"nb_programs":0,"format_name":"flac","format_long_name":"raw FLAC","start_time":"0.000000","duration":"214.933333","size":"25747647","bit_rate":"958349","probe_score":100,"tags":{"ARTIST":"Porter Robinson","TITLE":"do-re-mi-fa-so-la-ti-do","ALBUM":"Nurture","DATE":"2021","track":"06","GENRE":"Progressive","COMPOSER":"Porter Robinson","disc":"1","ENCODER":"reference libFLAC 1.3.2 20170101","album_artist":"Porter Robinson","TRACKTOTAL":"15","DISCTOTAL":"1"}},"date_added":1674233951235},{"streams":[{"index":0,"codec_name":"flac","codec_long_name":"FLAC (Free Lossless Audio Codec)","codec_type":"audio","codec_tag_string":"[0][0][0][0]","codec_tag":"0x0000","sample_fmt":"s16","sample_rate":"44100","channels":2,"channel_layout":"stereo","bits_per_sample":0,"r_frame_rate":"0/0","avg_frame_rate":"0/0","time_base":"1/44100","start_pts":0,"start_time":"0.000000","duration_ts":9988356,"duration":"226.493333","bits_per_raw_sample":"16","disposition":{"default":0,"dub":0,"original":0,"comment":0,"lyrics":0,"karaoke":0,"forced":0,"hearing_impaired":0,"visual_impaired":0,"clean_effects":0,"attached_pic":0,"timed_thumbnails":0}}],"format":{"filename":"/home/music/[2021] Nurture [CD FLAC]/07 Mother.flac","nb_streams":1,"nb_programs":0,"format_name":"flac","format_long_name":"raw FLAC","start_time":"0.000000","duration":"226.493333","size":"30771067","bit_rate":"1086868","probe_score":100,"tags":{"ARTIST":"Porter Robinson","TITLE":"Mother","ALBUM":"Nurture","DATE":"2021","track":"07","GENRE":"Progressive","COMPOSER":"Porter Robinson","disc":"1","ENCODER":"reference libFLAC 1.3.2 20170101","album_artist":"Porter Robinson","TRACKTOTAL":"15","DISCTOTAL":"1"}},"date_added":1674233951235},{"streams":[{"index":0,"codec_name":"flac","codec_long_name":"FLAC (Free Lossless Audio Codec)","codec_type":"audio","codec_tag_string":"[0][0][0][0]","codec_tag":"0x0000","sample_fmt":"s16","sample_rate":"44100","channels":2,"channel_layout":"stereo","bits_per_sample":0,"r_frame_rate":"0/0","avg_frame_rate":"0/0","time_base":"1/44100","start_pts":0,"start_time":"0.000000","duration_ts":10591056,"duration":"240.160000","bits_per_raw_sample":"16","disposition":{"default":0,"dub":0,"original":0,"comment":0,"lyrics":0,"karaoke":0,"forced":0,"hearing_impaired":0,"visual_impaired":0,"clean_effects":0,"attached_pic":0,"timed_thumbnails":0}}],"format":{"filename":"/home/music/[2021] Nurture [CD FLAC]/08 dullscythe.flac","nb_streams":1,"nb_programs":0,"format_name":"flac","format_long_name":"raw FLAC","start_time":"0.000000","duration":"240.160000","size":"24932316","bit_rate":"830523","probe_score":100,"tags":{"ARTIST":"Porter Robinson","TITLE":"dullscythe","ALBUM":"Nurture","DATE":"2021","track":"08","GENRE":"Progressive","COMPOSER":"Porter Robinson","disc":"1","ENCODER":"reference libFLAC 1.3.2 20170101","album_artist":"Porter Robinson","TRACKTOTAL":"15","DISCTOTAL":"1"}},"date_added":1674233951235},{"streams":[{"index":0,"codec_name":"flac","codec_long_name":"FLAC (Free Lossless Audio Codec)","codec_type":"audio","codec_tag_string":"[0][0][0][0]","codec_tag":"0x0000","sample_fmt":"s16","sample_rate":"44100","channels":2,"channel_layout":"stereo","bits_per_sample":0,"r_frame_rate":"0/0","avg_frame_rate":"0/0","time_base":"1/44100","start_pts":0,"start_time":"0.000000","duration_ts":11092032,"duration":"251.520000","bits_per_raw_sample":"16","disposition":{"default":0,"dub":0,"original":0,"comment":0,"lyrics":0,"karaoke":0,"forced":0,"hearing_impaired":0,"visual_impaired":0,"clean_effects":0,"attached_pic":0,"timed_thumbnails":0}}],"format":{"filename":"/home/music/[2021] Nurture [CD FLAC]/09 Sweet Time.flac","nb_streams":1,"nb_programs":0,"format_name":"flac","format_long_name":"raw FLAC","start_time":"0.000000","duration":"251.520000","size":"31796128","bit_rate":"1011327","probe_score":100,"tags":{"ARTIST":"Porter Robinson","TITLE":"Sweet Time","ALBUM":"Nurture","DATE":"2021","track":"09","GENRE":"Progressive","COMPOSER":"Porter Robinson","disc":"1","ENCODER":"reference libFLAC 1.3.2 20170101","album_artist":"Porter Robinson","TRACKTOTAL":"15","DISCTOTAL":"1"}},"date_added":1674233951236},{"streams":[{"index":0,"codec_name":"flac","codec_long_name":"FLAC (Free Lossless Audio Codec)","codec_type":"audio","codec_tag_string":"[0][0][0][0]","codec_tag":"0x0000","sample_fmt":"s16","sample_rate":"44100","channels":2,"channel_layout":"stereo","bits_per_sample":0,"r_frame_rate":"0/0","avg_frame_rate":"0/0","time_base":"1/44100","start_pts":0,"start_time":"0.000000","duration_ts":13532232,"duration":"306.853333","bits_per_raw_sample":"16","disposition":{"default":0,"dub":0,"original":0,"comment":0,"lyrics":0,"karaoke":0,"forced":0,"hearing_impaired":0,"visual_impaired":0,"clean_effects":0,"attached_pic":0,"timed_thumbnails":0}}],"format":{"filename":"/home/music/[2021] Nurture [CD FLAC]/10 Mirror.flac","nb_streams":1,"nb_programs":0,"format_name":"flac","format_long_name":"raw FLAC","start_time":"0.000000","duration":"306.853333","size":"41278918","bit_rate":"1076186","probe_score":100,"tags":{"ARTIST":"Porter Robinson","TITLE":"Mirror","ALBUM":"Nurture","DATE":"2021","track":"10","GENRE":"Progressive","COMPOSER":"Porter Robinson","disc":"1","ENCODER":"reference libFLAC 1.3.2 20170101","album_artist":"Porter Robinson","TRACKTOTAL":"15","DISCTOTAL":"1"}},"date_added":1674233951236},{"streams":[{"index":0,"codec_name":"flac","codec_long_name":"FLAC (Free Lossless Audio Codec)","codec_type":"audio","codec_tag_string":"[0][0][0][0]","codec_tag":"0x0000","sample_fmt":"s16","sample_rate":"44100","channels":2,"channel_layout":"stereo","bits_per_sample":0,"r_frame_rate":"0/0","avg_frame_rate":"0/0","time_base":"1/44100","start_pts":0,"start_time":"0.000000","duration_ts":12433260,"duration":"281.933333","bits_per_raw_sample":"16","disposition":{"default":0,"dub":0,"original":0,"comment":0,"lyrics":0,"karaoke":0,"forced":0,"hearing_impaired":0,"visual_impaired":0,"clean_effects":0,"attached_pic":0,"timed_thumbnails":0}}],"format":{"filename":"/home/music/[2021] Nurture [CD FLAC]/11 Something Comforting.flac","nb_streams":1,"nb_programs":0,"format_name":"flac","format_long_name":"raw FLAC","start_time":"0.000000","duration":"281.933333","size":"34117245","bit_rate":"968093","probe_score":100,"tags":{"ARTIST":"Porter Robinson","TITLE":"Something Comforting","ALBUM":"Nurture","DATE":"2021","track":"11","GENRE":"Progressive","COMPOSER":"Porter Robinson","disc":"1","ENCODER":"reference libFLAC 1.3.2 20170101","album_artist":"Porter Robinson","TRACKTOTAL":"15","DISCTOTAL":"1"}},"date_added":1674233951236},{"streams":[{"index":0,"codec_name":"flac","codec_long_name":"FLAC (Free Lossless Audio Codec)","codec_type":"audio","codec_tag_string":"[0][0][0][0]","codec_tag":"0x0000","sample_fmt":"s16","sample_rate":"44100","channels":2,"channel_layout":"stereo","bits_per_sample":0,"r_frame_rate":"0/0","avg_frame_rate":"0/0","time_base":"1/44100","start_pts":0,"start_time":"0.000000","duration_ts":9979536,"duration":"226.293333","bits_per_raw_sample":"16","disposition":{"default":0,"dub":0,"original":0,"comment":0,"lyrics":0,"karaoke":0,"forced":0,"hearing_impaired":0,"visual_impaired":0,"clean_effects":0,"attached_pic":0,"timed_thumbnails":0}}],"format":{"filename":"/home/music/[2021] Nurture [CD FLAC]/12 Blossom.flac","nb_streams":1,"nb_programs":0,"format_name":"flac","format_long_name":"raw FLAC","start_time":"0.000000","duration":"226.293333","size":"19983666","bit_rate":"706469","probe_score":100,"tags":{"ARTIST":"Porter Robinson","TITLE":"Blossom","ALBUM":"Nurture","DATE":"2021","track":"12","GENRE":"Progressive","COMPOSER":"Porter Robinson","disc":"1","ENCODER":"reference libFLAC 1.3.2 20170101","album_artist":"Porter Robinson","TRACKTOTAL":"15","DISCTOTAL":"1"}},"date_added":1674233951236},{"streams":[{"index":0,"codec_name":"flac","codec_long_name":"FLAC (Free Lossless Audio Codec)","codec_type":"audio","codec_tag_string":"[0][0][0][0]","codec_tag":"0x0000","sample_fmt":"s16","sample_rate":"44100","channels":2,"channel_layout":"stereo","bits_per_sample":0,"r_frame_rate":"0/0","avg_frame_rate":"0/0","time_base":"1/44100","start_pts":0,"start_time":"0.000000","duration_ts":12604368,"duration":"285.813333","bits_per_raw_sample":"16","disposition":{"default":0,"dub":0,"original":0,"comment":0,"lyrics":0,"karaoke":0,"forced":0,"hearing_impaired":0,"visual_impaired":0,"clean_effects":0,"attached_pic":0,"timed_thumbnails":0}}],"format":{"filename":"/home/music/[2021] Nurture [CD FLAC]/13 Unfold.flac","nb_streams":1,"nb_programs":0,"format_name":"flac","format_long_name":"raw FLAC","start_time":"0.000000","duration":"285.813333","size":"34270840","bit_rate":"959250","probe_score":100,"tags":{"ARTIST":"Porter Robinson Feat. Totally Enormous Extinct Dinosaurs","TITLE":"Unfold","ALBUM":"Nurture","DATE":"2021","track":"13","GENRE":"Progressive","COMPOSER":"Orlando Higginbottom","disc":"1","ENCODER":"reference libFLAC 1.3.2 20170101","album_artist":"Porter Robinson","TRACKTOTAL":"15","DISCTOTAL":"1"}},"date_added":1674233951236},{"streams":[{"index":0,"codec_name":"flac","codec_long_name":"FLAC (Free Lossless Audio Codec)","codec_type":"audio","codec_tag_string":"[0][0][0][0]","codec_tag":"0x0000","sample_fmt":"s16","sample_rate":"44100","channels":2,"channel_layout":"stereo","bits_per_sample":0,"r_frame_rate":"0/0","avg_frame_rate":"0/0","time_base":"1/44100","start_pts":0,"start_time":"0.000000","duration_ts":12524400,"duration":"284.000000","bits_per_raw_sample":"16","disposition":{"default":0,"dub":0,"original":0,"comment":0,"lyrics":0,"karaoke":0,"forced":0,"hearing_impaired":0,"visual_impaired":0,"clean_effects":0,"attached_pic":0,"timed_thumbnails":0}}],"format":{"filename":"/home/music/[2021] Nurture [CD FLAC]/14 Trying To Feel Alive.flac","nb_streams":1,"nb_programs":0,"format_name":"flac","format_long_name":"raw FLAC","start_time":"0.000000","duration":"284.000000","size":"33258570","bit_rate":"936861","probe_score":100,"tags":{"ARTIST":"Porter Robinson","TITLE":"Trying To Feel Alive","ALBUM":"Nurture","DATE":"2021","track":"14","GENRE":"Progressive","COMPOSER":"Porter Robinson","disc":"1","ENCODER":"reference libFLAC 1.3.2 20170101","album_artist":"Porter Robinson","TRACKTOTAL":"15","DISCTOTAL":"1"}},"date_added":1674233951236},{"streams":[{"index":0,"codec_name":"flac","codec_long_name":"FLAC (Free Lossless Audio Codec)","codec_type":"audio","codec_tag_string":"[0][0][0][0]","codec_tag":"0x0000","sample_fmt":"s16","sample_rate":"44100","channels":2,"channel_layout":"stereo","bits_per_sample":0,"r_frame_rate":"0/0","avg_frame_rate":"0/0","time_base":"1/44100","start_pts":0,"start_time":"0.000000","duration_ts":10704540,"duration":"242.733333","bits_per_raw_sample":"16","disposition":{"default":0,"dub":0,"original":0,"comment":0,"lyrics":0,"karaoke":0,"forced":0,"hearing_impaired":0,"visual_impaired":0,"clean_effects":0,"attached_pic":0,"timed_thumbnails":0}}],"format":{"filename":"/home/music/[2021] Nurture [CD FLAC]/15 Fullmoon Lullaby.flac","nb_streams":1,"nb_programs":0,"format_name":"flac","format_long_name":"raw FLAC","start_time":"0.000000","duration":"242.733333","size":"27093921","bit_rate":"892960","probe_score":100,"tags":{"ARTIST":"Porter Robinson & Wednesday Campanella","TITLE":"Fullmoon Lullaby","ALBUM":"Nurture","DATE":"2021","track":"15","GENRE":"Progressive","COMPOSER":"Misaki Koishi","disc":"1","ENCODER":"reference libFLAC 1.3.2 20170101","album_artist":"Porter Robinson","TRACKTOTAL":"15","DISCTOTAL":"1"}},"date_added":1674233951236},{"streams":[{"index":0,"codec_name":"mjpeg","codec_long_name":"Motion JPEG","profile":"Progressive","codec_type":"video","codec_tag_string":"[0][0][0][0]","codec_tag":"0x0000","width":1000,"height":1000,"coded_width":1000,"coded_height":1000,"closed_captions":0,"has_b_frames":0,"sample_aspect_ratio":"1:1","display_aspect_ratio":"1:1","pix_fmt":"yuvj444p","level":-99,"color_range":"pc","color_space":"bt470bg","chroma_location":"center","refs":1,"r_frame_rate":"25/1","avg_frame_rate":"25/1","time_base":"1/25","start_pts":0,"start_time":"0.000000","duration_ts":1,"duration":"0.040000","bits_per_raw_sample":"8","disposition":{"default":0,"dub":0,"original":0,"comment":0,"lyrics":0,"karaoke":0,"forced":0,"hearing_impaired":0,"visual_impaired":0,"clean_effects":0,"attached_pic":0,"timed_thumbnails":0}}],"format":{"filename":"/home/music/[2021] Nurture [CD FLAC]/cover.jpg","nb_streams":1,"nb_programs":0,"format_name":"image2","format_long_name":"image2 sequence","start_time":"0.000000","duration":"0.040000","size":"802545","bit_rate":"160509000","probe_score":50},"date_added":1674233951236}]}